<?xml version="1.0" standalone="no"?>
<!DOCTYPE svg PUBLIC "-//W3C//DTD SVG 20010904//EN"
 "http://www.w3.org/TR/2001/REC-SVG-20010904/DTD/svg10.dtd">
<svg version="1.0" xmlns="http://www.w3.org/2000/svg"
 width="1080.000000pt" height="972.000000pt" viewBox="0 0 1080.000000 972.000000"
 preserveAspectRatio="xMidYMid meet">

<g transform="translate(0.000000,972.000000) scale(0.100000,-0.100000)"
fill="#000000" stroke="none">
<path d="M4925 9549 c-259 -21 -577 -109 -804 -224 -176 -88 -372 -290 -487
-502 -73 -133 -106 -234 -110 -338 -3 -80 -30 -213 -75 -377 -10 -38 -11 -60
-2 -102 9 -44 9 -64 -3 -102 -16 -55 -19 -196 -4 -225 8 -14 3 -42 -20 -117
-44 -141 -57 -252 -40 -349 7 -48 12 -143 10 -243 -1 -91 3 -210 9 -265 6 -55
13 -149 16 -209 5 -108 21 -190 49 -257 13 -30 13 -48 0 -134 -14 -102 -18
-376 -6 -407 4 -10 7 62 7 160 1 135 5 195 18 252 26 106 84 387 91 435 3 22
10 72 16 110 5 39 10 104 10 145 1 118 26 273 54 328 58 114 112 398 122 642
11 293 48 424 161 582 l36 50 69 -7 c50 -4 74 -3 85 6 8 7 46 21 83 30 38 10
101 32 140 49 183 80 332 89 515 31 55 -18 138 -37 185 -43 106 -13 369 -3
448 17 74 20 408 62 589 75 179 13 432 5 479 -15 47 -19 132 -102 221 -212 41
-51 81 -93 89 -93 27 0 119 -103 162 -179 22 -41 55 -112 73 -159 31 -80 32
-86 19 -130 -34 -120 -20 -477 25 -632 22 -74 29 -254 16 -370 -6 -52 -13
-117 -17 -145 -8 -75 -62 -337 -91 -445 -33 -121 -36 -238 -9 -293 23 -46 70
-84 109 -89 26 -3 31 2 50 47 20 45 22 70 23 237 1 186 1 187 28 222 35 46 66
67 177 120 136 64 168 72 207 52 53 -27 110 -126 132 -229 9 -41 9 -41 5 11
-8 96 -100 252 -149 252 -8 0 0 25 21 68 18 37 40 94 48 127 20 76 29 261 17
343 -8 55 -5 79 24 205 53 223 56 463 9 596 -7 22 -15 82 -16 132 -3 138 -52
330 -149 579 -26 69 -55 160 -65 202 -38 176 -150 273 -330 286 -78 5 -81 6
-135 52 -96 83 -271 185 -412 241 -119 47 -618 126 -1068 169 -118 11 -244 25
-280 29 -114 16 -262 19 -375 10z"/>
<path d="M3930 7354 c0 -11 -5 -14 -17 -9 -11 4 -6 -7 13 -27 40 -41 85 -132
113 -223 12 -39 31 -81 42 -95 17 -20 19 -21 13 -5 -4 11 -18 50 -30 87 -13
37 -28 77 -34 88 -7 12 -9 24 -7 27 8 7 56 -80 89 -160 l29 -72 -5 53 c-7 72
-55 158 -139 248 -38 41 -66 74 -62 74 40 0 189 -152 230 -234 14 -27 25 -61
25 -75 0 -33 -12 -18 -35 44 -19 52 -45 98 -52 92 -2 -2 13 -38 33 -80 19 -42
37 -83 38 -91 4 -28 15 -29 28 -2 9 21 9 37 1 69 -10 38 -10 40 3 22 18 -25
37 -92 29 -105 -3 -6 -1 -10 4 -10 14 0 14 51 1 86 -6 16 -7 31 -2 36 10 10
37 -55 48 -112 8 -43 22 -70 34 -70 17 0 11 25 -34 144 -24 64 -42 116 -41
116 7 0 85 -152 85 -164 0 -7 9 -21 20 -31 18 -16 20 -16 26 -2 5 14 -40 105
-123 246 -11 19 -7 17 17 -9 51 -56 128 -159 142 -191 14 -32 28 -38 28 -11
-1 30 -36 96 -84 155 -52 64 -56 74 -22 51 35 -22 87 -106 114 -184 l23 -65
-4 48 c-7 73 -69 191 -120 228 -34 25 -42 27 -47 14 -4 -12 -11 -10 -40 13
-39 32 -95 63 -107 60 -4 -1 -18 3 -30 10 -22 12 -23 11 -23 -17 0 -22 8 -35
30 -51 27 -19 90 -100 90 -115 0 -4 -43 37 -95 90 -52 53 -99 94 -104 90 -6
-3 -28 4 -51 15 -35 18 -40 18 -40 4z"/>
<path d="M3865 7262 c2 -18 8 -39 14 -46 6 -7 18 -30 26 -52 l16 -39 -21 25
-21 25 16 -33 c9 -18 20 -30 25 -27 6 3 7 -1 4 -10 -4 -11 13 -35 55 -77 34
-34 63 -59 66 -56 6 6 -87 246 -111 288 -9 15 -12 17 -8 5 9 -28 60 -166 69
-187 25 -62 -54 60 -109 167 -23 47 -25 48 -21 17z"/>
<path d="M4420 7282 c0 -7 7 -26 15 -42 17 -34 7 -40 -19 -11 -18 20 -56 34
-56 21 0 -4 12 -16 28 -26 15 -9 33 -25 40 -33 23 -28 59 -115 67 -161 8 -51
24 -88 25 -57 0 9 4 17 9 17 11 0 -5 63 -24 100 -8 14 -23 54 -35 90 -22 68
-49 124 -50 102z"/>
<path d="M4060 7225 c0 -5 9 -21 20 -35 11 -14 20 -20 20 -15 0 6 -9 21 -20
35 -11 14 -20 21 -20 15z"/>
<path d="M6122 7155 c-32 -53 -67 -91 -43 -47 23 42 10 35 -23 -13 -19 -28
-49 -63 -67 -80 l-32 -30 21 31 c30 44 54 109 50 136 -4 22 -5 22 -18 -7 -36
-75 -88 -145 -135 -178 -28 -20 -27 -18 9 25 22 26 41 55 42 65 18 129 12 147
-15 47 -11 -40 -74 -124 -85 -113 -3 3 10 27 28 55 18 27 36 60 40 74 4 14 -4
6 -19 -20 l-26 -45 5 42 c2 25 0 46 -7 50 -10 6 -37 -21 -64 -63 -8 -12 -7 -2
2 25 8 24 15 53 15 65 -1 11 -14 -17 -30 -64 -16 -47 -26 -88 -21 -93 4 -4 25
18 45 49 21 31 40 53 43 51 10 -11 -28 -104 -56 -138 l-29 -34 -13 30 c-26 60
-60 102 -99 124 -56 31 -70 22 -21 -14 66 -49 126 -150 132 -223 1 -9 5 1 8
22 5 34 11 41 44 52 43 15 41 2 -4 -21 -16 -9 -27 -20 -24 -25 7 -11 57 3 101
31 19 11 38 19 41 16 5 -5 -47 -41 -72 -51 -5 -2 -7 -7 -3 -11 5 -5 27 -2 50
5 24 8 50 15 60 16 9 0 23 4 32 7 11 4 13 1 9 -10 -9 -23 57 -10 129 26 31 16
58 26 60 22 4 -10 168 166 168 180 0 7 -14 0 -31 -17 -26 -23 -29 -25 -20 -7
13 26 14 53 2 53 -5 0 -12 -8 -15 -17 -4 -10 -15 -29 -26 -43 -16 -20 -15 -14
5 24 34 66 32 90 -4 35 -27 -42 -81 -100 -81 -86 0 4 9 21 20 39 20 34 26 68
12 68 -4 0 -25 -23 -46 -50 -21 -28 -41 -48 -44 -46 -3 3 0 12 6 19 19 22 43
100 34 109 -4 4 -22 -17 -40 -47z m88 -120 c-31 -33 -114 -88 -162 -108 -21
-9 -38 -15 -38 -13 0 7 108 74 137 85 17 7 41 23 54 37 12 13 25 24 27 24 3 0
-5 -11 -18 -25z"/>
<path d="M4660 7192 c0 -8 8 -26 18 -40 11 -15 21 -36 24 -47 3 -11 9 -29 13
-40 4 -11 -5 -1 -21 23 -16 23 -30 38 -32 32 -2 -5 8 -24 22 -41 25 -30 36
-66 16 -54 -12 7 -44 68 -55 104 -5 18 -4 22 5 16 9 -5 11 -4 6 4 -4 6 -12 9
-17 6 -5 -4 -9 0 -9 8 0 8 -7 17 -15 21 -20 7 -19 0 6 -34 15 -19 19 -35 14
-47 -6 -15 -9 -14 -16 10 -9 34 -25 54 -53 69 -14 7 -10 -1 13 -25 29 -31 33
-41 27 -69 -4 -23 -3 -29 4 -18 12 19 12 13 2 -25 -7 -24 -5 -34 11 -50 20
-20 20 -20 14 5 -5 22 -4 23 7 8 9 -12 22 -15 43 -12 27 4 32 1 36 -18 2 -13
3 -3 1 22 l-3 45 19 -50 c10 -27 19 -45 19 -40 1 6 6 3 11 -5 8 -12 10 -12 10
5 0 32 -25 128 -39 150 -11 18 -12 16 -7 -15 5 -35 5 -35 -9 -10 -8 14 -14 35
-15 47 0 24 -49 87 -50 65z"/>
<path d="M4505 7154 c14 -20 28 -55 31 -76 4 -21 9 -36 12 -33 3 3 12 -5 20
-16 14 -20 16 -20 24 -4 6 9 7 19 4 22 -3 4 -6 0 -6 -8 0 -8 -20 22 -44 66
-24 43 -48 81 -55 83 -6 2 0 -13 14 -34z"/>
<path d="M3810 7172 c0 -20 40 -94 69 -127 l26 -30 -34 30 c-40 34 -71 69 -88
99 -9 15 -12 17 -13 5 0 -17 52 -103 69 -113 6 -4 16 -16 22 -27 9 -18 8 -19
-8 -11 -27 15 -68 63 -88 101 -9 19 -26 44 -37 55 -14 15 -9 -2 17 -59 20 -44
45 -95 56 -113 12 -21 15 -32 7 -30 -20 7 -108 120 -118 153 -10 29 -10 28 -6
-8 11 -92 106 -217 165 -217 16 0 34 -7 42 -16 13 -16 62 -44 76 -44 4 0 -17
24 -46 54 l-53 53 39 -1 c32 -1 38 2 41 21 3 20 6 21 24 12 27 -14 35 -3 15
19 -10 10 -17 21 -17 25 0 4 -19 26 -43 49 -23 24 -48 62 -56 86 -8 23 -16 40
-19 38 -2 -3 3 -26 12 -51 12 -38 13 -45 1 -35 -7 6 -23 30 -34 53 -12 23 -21
36 -21 29z"/>
<path d="M5704 7162 c-13 -8 -34 -46 -34 -62 0 -6 14 3 30 20 17 17 28 35 25
41 -7 11 -7 11 -21 1z"/>
<path d="M5975 7139 c-4 -6 -5 -12 -2 -15 2 -3 7 2 10 11 7 17 1 20 -8 4z"/>
<path d="M6379 7134 c-9 -11 -29 -39 -44 -63 -57 -93 -160 -181 -210 -181 -8
0 -15 -4 -15 -10 0 -18 55 -11 126 16 90 34 104 38 104 30 0 -3 -18 -13 -40
-22 -22 -9 -40 -20 -40 -25 0 -15 39 -10 90 12 47 20 52 21 90 5 22 -9 45 -16
50 -16 16 0 12 21 -7 43 -21 24 -5 17 45 -21 l34 -24 -4 23 c-2 15 -18 30 -47
46 -24 13 -37 23 -29 23 9 0 39 -16 68 -35 29 -19 56 -33 60 -30 5 3 11 1 15
-5 9 -14 25 -12 25 3 0 14 -110 127 -124 127 -5 0 -1 -11 8 -25 18 -28 18 -29
-18 -15 l-25 9 24 43 c41 72 27 97 -17 31 -35 -52 -98 -113 -117 -113 -10 0 0
15 26 43 42 43 68 85 60 94 -3 2 -18 -12 -33 -33 -28 -36 -29 -36 -34 -13 -6
23 -7 23 -24 -9 -10 -19 -19 -32 -22 -29 -2 2 7 25 22 50 14 26 24 56 22 68
-3 21 -3 21 -19 3z"/>
<path d="M5545 7100 c-6 -10 -5 -11 15 -14 11 -1 45 -46 35 -46 -4 0 9 -22 29
-49 20 -26 47 -72 62 -102 25 -54 25 -54 19 -14 -9 53 -41 113 -95 179 -47 57
-55 63 -65 46z"/>
<path d="M5947 7083 c-11 -13 -17 -26 -14 -29 2 -3 12 7 21 22 23 33 17 39 -7
7z"/>
<path d="M4570 7095 c0 -5 5 -17 10 -25 5 -8 10 -10 10 -5 0 6 -5 17 -10 25
-5 8 -10 11 -10 5z"/>
<path d="M5480 7095 c0 -2 21 -18 48 -37 31 -23 57 -53 75 -89 24 -45 25 -49
6 -25 -56 71 -124 126 -156 126 -24 0 -12 -15 38 -50 27 -19 68 -60 91 -89 28
-37 43 -50 46 -41 3 8 13 -7 23 -35 10 -28 18 -41 18 -29 1 34 -25 110 -55
161 -16 27 -27 53 -25 58 1 6 -1 7 -5 2 -4 -4 -20 4 -34 18 -22 21 -70 42 -70
30z"/>
<path d="M5630 7052 c0 -5 12 -19 26 -33 15 -13 35 -42 45 -64 10 -22 19 -34
19 -27 0 19 -35 83 -60 110 -22 23 -30 27 -30 14z"/>
<path d="M5435 7030 l20 -23 -37 7 c-24 4 -38 3 -38 -4 0 -5 7 -10 15 -10 24
0 108 -45 132 -72 12 -12 33 -43 48 -68 14 -25 23 -34 20 -21 -5 17 -4 22 5
16 7 -5 2 11 -11 35 -24 43 -112 131 -153 152 l-21 11 20 -23z"/>
<path d="M6569 7023 c5 -10 24 -31 41 -48 18 -16 45 -57 61 -90 22 -46 28 -54
29 -34 0 37 -46 124 -86 159 -39 34 -60 40 -45 13z"/>
<path d="M4045 6731 c-38 -10 -90 -27 -115 -37 -46 -18 -150 -80 -150 -89 0
-3 19 7 42 21 122 77 365 133 454 104 84 -28 76 -35 -33 -33 -114 2 -132 -3
-383 -119 l-95 -43 75 -1 c46 -1 113 -11 175 -28 102 -27 135 -31 135 -18 0 4
15 7 33 8 17 0 44 4 60 7 39 10 104 72 117 113 6 19 17 34 24 34 19 0 88 -57
109 -90 l17 -27 -25 5 c-19 3 -25 11 -26 31 -2 22 -2 23 -6 4 -6 -30 -18 -37
-98 -58 -38 -10 -77 -22 -85 -26 -26 -15 21 -11 80 7 29 9 75 19 102 23 45 7
52 6 85 -20 20 -16 39 -29 43 -29 21 0 14 18 -28 62 -176 189 -212 212 -347
215 -64 2 -111 -3 -160 -16z m71 -95 c22 -22 17 -32 -23 -44 -56 -17 -90 22
-40 46 31 15 46 14 63 -2z m-99 -43 c3 -10 18 -31 32 -47 22 -25 23 -28 6 -22
-11 5 -55 15 -97 24 l-77 16 52 22 c65 28 76 28 84 7z"/>
<path d="M4830 6715 c0 -5 5 -17 10 -25 5 -8 10 -10 10 -5 0 6 -5 17 -10 25
-5 8 -10 11 -10 5z"/>
<path d="M5860 6662 c-73 -30 -120 -64 -202 -147 -77 -77 -95 -105 -60 -90 34
15 83 17 130 5 26 -7 83 -16 127 -21 44 -4 105 -13 135 -20 48 -10 73 -9 182
10 175 29 214 28 292 -11 63 -31 95 -33 65 -4 -23 23 -279 153 -354 181 -153
56 -279 69 -366 36 -34 -13 -47 -15 -39 -6 6 7 42 25 81 39 84 31 195 35 280
10 30 -9 127 -54 217 -101 89 -47 167 -83 173 -81 27 9 -219 148 -335 189 -87
31 -263 37 -326 11z m-10 -114 c0 -18 -28 -38 -52 -38 -8 0 -23 6 -34 14 -23
18 -10 35 39 52 34 12 47 5 47 -28z m245 15 c38 0 192 -70 200 -91 3 -8 1 -20
-4 -25 -24 -24 -333 -59 -345 -38 -4 6 -1 11 6 11 19 0 78 58 89 87 5 13 9 36
9 51 0 15 4 22 8 16 4 -6 21 -11 37 -11z m-365 -48 c0 -9 14 -29 30 -45 34
-33 33 -35 -5 -20 -14 5 -47 10 -74 11 l-49 2 40 34 c44 36 58 41 58 18z m629
-71 c2 -2 -8 -4 -22 -4 -18 0 -27 5 -27 15 0 13 4 14 23 4 12 -6 24 -13 26
-15z"/>
<path d="M4856 6650 c3 -14 10 -90 14 -170 l8 -145 -3 145 c-1 86 -7 155 -14
170 l-12 25 7 -25z"/>
<path d="M4537 6463 c-13 -13 -7 -21 13 -16 11 3 17 9 14 14 -6 11 -18 12 -27
2z"/>
<path d="M4555 6389 c-4 -6 -5 -12 -2 -15 2 -3 7 2 10 11 7 17 1 20 -8 4z"/>
<path d="M4530 6332 c-8 -15 -16 -31 -19 -36 -2 -5 1 -6 8 -2 13 8 34 56 28
62 -2 2 -10 -8 -17 -24z"/>
<path d="M5571 6343 c-1 -27 20 -82 25 -67 3 5 -2 28 -10 50 -10 27 -15 32
-15 17z"/>
<path d="M4485 6306 c-10 -19 -16 -38 -13 -42 8 -7 40 54 36 68 -2 5 -12 -6
-23 -26z"/>
<path d="M5610 6307 c0 -30 30 -81 42 -69 7 7 2 22 -16 48 -17 26 -26 33 -26
21z"/>
<path d="M4421 6262 c-6 -12 -11 -27 -11 -34 1 -7 8 0 16 15 9 16 13 31 11 34
-3 2 -10 -4 -16 -15z"/>
<path d="M5660 6276 c0 -10 39 -76 46 -76 2 0 4 6 4 13 0 14 -49 77 -50 63z"/>
<path d="M7470 6261 c-59 -31 -103 -110 -125 -226 -4 -20 1 -14 15 19 42 100
116 176 169 176 48 0 101 -86 101 -160 -1 -14 -17 -65 -36 -115 -20 -49 -46
-116 -58 -147 -15 -39 -34 -66 -60 -87 -52 -41 -223 -263 -251 -326 -13 -27
-26 -66 -30 -85 -6 -34 -5 -34 10 -15 9 11 28 43 42 70 42 82 91 142 142 174
46 28 116 94 135 128 5 9 12 47 16 85 6 54 16 84 50 141 53 90 67 161 52 251
-20 120 -84 164 -172 117z"/>
<path d="M5724 6225 c12 -53 19 -66 31 -61 7 2 16 -2 19 -10 6 -15 36 -20 36
-5 0 16 -42 62 -54 58 -6 -2 -17 5 -24 17 -12 20 -13 20 -8 1z"/>
<path d="M4366 6201 c-10 -11 -16 -26 -14 -33 3 -8 12 0 22 20 19 37 17 40 -8
13z"/>
<path d="M4311 6189 c-12 -10 -27 -17 -31 -14 -11 6 -80 -34 -80 -46 0 -18 28
-9 54 17 21 22 26 23 26 10 0 -23 19 -16 44 17 25 33 19 41 -13 16z"/>
<path d="M5817 6193 c-3 -5 7 -21 24 -35 16 -15 29 -21 29 -14 0 17 -47 60
-53 49z"/>
<path d="M7787 6139 c-10 -90 -38 -167 -96 -269 -27 -47 -59 -108 -70 -137
-28 -73 -89 -292 -96 -344 l-5 -44 11 40 c37 147 97 308 184 494 64 137 89
227 83 291 -2 26 -5 19 -11 -31z"/>
<path d="M5870 6184 c0 -6 7 -19 16 -30 14 -18 14 -18 3 6 -14 31 -19 36 -19
24z"/>
<path d="M7370 5936 c0 -4 6 -22 14 -41 17 -41 62 -73 78 -57 8 8 3 17 -17 34
-15 13 -38 34 -51 47 -13 13 -24 21 -24 17z"/>
<path d="M7366 5844 c-17 -45 7 -164 33 -164 15 0 14 5 -10 52 -16 30 -20 53
-16 85 5 46 3 53 -7 27z"/>
<path d="M4686 5708 c-3 -13 -5 -50 -4 -83 1 -59 1 -58 8 20 7 84 6 100 -4 63z"/>
<path d="M3460 5660 c0 -12 66 -310 119 -535 22 -93 56 -255 76 -360 65 -345
107 -492 180 -640 27 -55 32 -80 13 -72 -9 3 -14 -6 -15 -26 -1 -17 -7 -33
-12 -36 -5 -4 -26 -42 -47 -86 l-38 -80 -1 -155 c0 -149 -1 -157 -29 -217 -16
-35 -33 -63 -38 -63 -5 0 -6 -5 -3 -11 4 -5 0 -18 -8 -27 -18 -21 -47 -104
-47 -137 0 -19 -11 -28 -56 -49 -31 -14 -61 -23 -67 -19 -6 3 -7 1 -3 -5 7
-11 3 -14 -26 -16 -7 -1 -15 -3 -18 -7 -16 -18 -190 -76 -255 -85 -11 -1 -22
-3 -25 -4 -3 -1 -9 -3 -15 -4 -5 -1 -53 -11 -105 -23 -52 -13 -147 -32 -210
-44 -194 -35 -327 -76 -435 -132 -86 -45 -115 -67 -205 -157 -58 -58 -127
-131 -153 -163 -27 -32 -53 -54 -59 -51 -6 4 -8 3 -5 -3 9 -14 -89 -86 -104
-77 -7 4 -9 3 -6 -3 8 -12 -93 -70 -428 -248 -132 -70 -275 -147 -317 -171
-43 -24 -80 -44 -83 -44 -13 0 -176 -99 -260 -157 -308 -216 -419 -422 -597
-1103 -28 -107 -65 -265 -83 -350 -22 -105 -34 -145 -37 -125 -2 17 -6 -16 -9
-73 -5 -121 12 -140 31 -34 108 611 263 1123 402 1326 134 197 272 305 668
524 25 14 76 43 114 65 38 22 196 103 350 180 269 134 363 190 414 246 13 14
56 64 95 111 223 265 346 321 932 425 193 34 353 87 477 157 37 21 69 38 71
38 3 0 7 -22 11 -48 7 -51 57 -145 104 -196 47 -50 331 -299 405 -354 98 -74
181 -118 294 -158 106 -38 280 -80 291 -70 23 23 -71 78 -292 172 -256 108
-465 250 -668 454 -130 132 -140 208 -52 396 25 55 54 137 64 184 10 47 19 78
19 69 2 -30 108 -175 246 -334 34 -38 111 -131 172 -205 215 -262 394 -412
650 -546 216 -113 291 -172 351 -275 l32 -54 0 37 c0 47 -43 181 -75 233 -20
33 -25 36 -25 18 0 -12 11 -48 25 -80 l26 -58 -48 49 c-64 64 -145 121 -278
193 -322 175 -496 329 -770 679 -77 98 -163 208 -192 244 -29 35 -71 98 -94
139 -52 90 -55 139 -15 226 14 32 26 65 27 74 1 9 7 -13 15 -49 34 -160 150
-305 349 -437 125 -82 354 -201 515 -265 212 -85 250 -110 311 -200 59 -86 72
-92 161 -77 88 15 116 9 163 -33 64 -56 112 -188 134 -368 6 -47 17 -107 25
-135 18 -57 72 -155 86 -155 5 0 12 21 16 47 14 105 65 307 90 366 77 173 191
324 410 542 113 113 194 183 275 240 215 150 280 222 300 333 6 31 14 61 18
65 10 10 50 -56 58 -95 5 -25 -1 -35 -44 -76 -28 -26 -59 -61 -71 -77 -22 -32
-164 -173 -272 -270 -179 -160 -268 -246 -322 -312 -171 -209 -336 -554 -368
-768 -17 -113 -18 -114 -40 -78 -11 19 -30 34 -49 38 -45 10 -53 0 -46 -57 6
-48 6 -49 -14 -38 -48 25 -56 -26 -12 -71 36 -35 88 -39 135 -10 29 18 35 18
86 5 159 -41 395 13 660 153 184 97 303 193 370 300 23 35 40 73 38 84 -2 15
-21 -1 -84 -74 -119 -137 -251 -231 -454 -322 -160 -72 -270 -97 -427 -99 -76
-1 -136 3 -142 9 -12 12 16 139 61 275 79 243 283 595 445 771 31 33 116 112
190 175 73 63 147 133 165 156 41 52 87 98 161 164 l57 51 0 -256 c-1 -448
-19 -584 -97 -720 -89 -155 -241 -278 -447 -364 -114 -48 -208 -72 -356 -93
-132 -19 -152 -26 -132 -46 8 -8 51 -14 120 -16 141 -5 261 25 417 103 178 89
316 205 403 338 74 115 100 217 103 400 1 53 5 97 9 97 4 0 23 -7 43 -15 19
-8 89 -19 154 -25 361 -33 479 -70 883 -277 123 -64 291 -146 373 -184 179
-81 231 -116 334 -222 206 -213 220 -224 300 -256 65 -26 143 -38 309 -50 148
-11 210 -30 306 -94 176 -118 310 -308 483 -687 193 -423 219 -528 230 -925 6
-264 13 -345 27 -345 6 0 7 8 3 18 -5 9 -11 156 -15 327 -6 252 -11 331 -29
421 -49 261 -234 686 -407 939 -38 55 -164 202 -164 191 0 -3 -22 16 -49 42
-107 102 -306 183 -515 208 -224 27 -267 52 -459 266 -88 99 -166 154 -319
227 -59 28 -110 56 -113 61 -4 6 -10 8 -15 5 -10 -6 -311 142 -321 157 -3 5
-9 10 -12 9 -4 0 -45 18 -92 40 -124 57 -365 136 -473 154 -51 9 -156 17 -235
19 -85 2 -158 9 -182 17 l-40 14 -6 260 c-6 266 -8 288 -36 388 -12 41 -25 64
-45 78 -24 18 -28 27 -28 69 0 53 18 244 26 275 4 15 3 17 -4 5 -18 -28 -33
-154 -37 -297 -2 -103 -8 -150 -19 -175 -23 -49 -97 -117 -201 -187 -116 -79
-208 -163 -433 -396 -211 -219 -256 -276 -317 -400 -43 -88 -97 -271 -110
-370 -9 -75 -18 -81 -42 -32 -24 49 -45 140 -67 282 -19 128 -49 205 -103 265
-58 65 -107 83 -192 74 -108 -13 -113 -10 -186 92 -52 73 -76 88 -340 224
-421 216 -548 295 -670 415 -86 84 -125 156 -125 229 0 55 16 126 29 126 4 0
23 -24 41 -52 46 -71 200 -225 278 -277 169 -114 450 -250 618 -300 79 -23 94
-25 94 -12 0 6 -38 21 -84 36 -277 84 -611 269 -774 429 -192 187 -275 389
-386 931 -68 331 -90 433 -126 580 -21 88 -45 190 -52 228 -7 37 -16 67 -20
67 -5 0 -8 -4 -8 -10z m2121 -3566 c37 -19 33 -38 -9 -42 -30 -3 -32 -1 -32
27 0 36 1 36 41 15z"/>
<path d="M4515 5571 c-34 -20 -58 -52 -69 -91 -7 -22 -5 -21 12 6 11 16 39 47
63 67 46 40 43 48 -6 18z"/>
<path d="M5460 5486 c0 -3 16 -31 36 -63 19 -32 33 -47 29 -33 -11 38 -65 119
-65 96z"/>
<path d="M4620 5361 c-23 -44 11 -61 118 -61 77 0 57 13 -31 19 -71 6 -72 7
-72 34 1 32 -1 33 -15 8z"/>
<path d="M4440 5337 c-1 -18 41 -84 72 -114 36 -34 75 -53 113 -53 44 0 35 18
-17 35 -71 23 -125 61 -148 104 -11 20 -19 32 -20 28z"/>
<path d="M5165 5322 c-16 -11 -48 -38 -70 -61 -22 -23 -55 -46 -75 -51 -33 -9
-89 -2 -121 14 -8 4 -6 1 5 -8 10 -8 38 -18 61 -22 50 -7 103 16 149 65 37 38
61 39 100 4 l29 -28 -22 33 c-12 17 -29 32 -37 32 -8 0 -12 5 -9 10 14 22 69
10 103 -22 22 -22 31 -26 24 -13 -29 57 -89 77 -137 47z"/>
<path d="M7514 5326 c-3 -8 -4 -25 -2 -38 3 -17 5 -13 9 15 5 38 2 47 -7 23z"/>
<path d="M5496 5234 c-10 -14 -43 -38 -74 -52 -52 -25 -54 -27 -29 -30 37 -4
87 26 110 66 23 40 17 53 -7 16z"/>
<path d="M7498 5215 c-15 -152 -164 -306 -313 -322 -65 -8 -151 14 -190 48
-44 39 -59 86 -51 158 4 41 3 51 -5 39 -17 -29 -22 -110 -10 -155 7 -25 28
-60 50 -83 l38 -40 -33 -19 c-56 -33 -110 -121 -167 -271 -12 -30 -22 -59 -23
-65 -12 -59 -78 -181 -158 -288 -159 -215 -315 -338 -626 -493 -377 -188 -598
-262 -892 -302 -71 -9 -128 -21 -128 -26 0 -5 50 -6 123 -3 246 13 516 104
940 319 412 208 632 442 767 813 18 50 43 112 57 138 51 103 138 164 217 155
20 -2 36 -1 36 3 0 4 19 10 43 14 75 13 145 45 197 91 27 25 50 50 50 54 0 5
19 40 41 80 47 81 60 125 50 172 -7 32 -8 31 -13 -17z"/>
<path d="M5265 5203 c22 -15 32 -16 39 -4 3 5 -8 11 -26 13 -28 5 -29 4 -13
-9z"/>
<path d="M4691 5014 c0 -11 3 -14 6 -6 3 7 2 16 -1 19 -3 4 -6 -2 -5 -13z"/>
<path d="M4710 4938 c-9 -177 -5 -269 11 -282 9 -6 21 -20 27 -31 11 -19 11
-19 12 3 0 12 -9 50 -20 83 -18 53 -20 76 -15 168 4 58 3 116 -2 129 -6 17
-10 -2 -13 -70z"/>
<path d="M4869 4993 c-2 -44 -15 -105 -19 -83 -2 14 -7 -3 -29 -115 -5 -27
-15 -65 -22 -84 -12 -34 -12 -34 -21 -10 -9 22 -5 83 8 134 4 16 3 17 -5 5 -9
-12 -11 -10 -12 10 -1 14 -5 -13 -9 -60 -5 -48 -4 -86 1 -88 5 -2 9 -12 9 -22
0 -24 21 -70 31 -70 4 0 3 13 -2 29 -8 22 -7 36 2 53 12 22 14 20 21 -31 9
-59 32 -107 60 -125 24 -15 34 0 15 22 -23 26 -65 122 -68 157 -3 38 10 113
21 120 4 3 7 -3 5 -12 -9 -45 -12 -103 -6 -98 4 2 13 -18 19 -46 15 -64 65
-170 70 -147 2 11 12 16 29 15 30 -2 56 29 35 42 -9 5 -11 17 -6 35 5 21 3 25
-9 20 -9 -3 -17 1 -21 13 -10 36 -26 137 -27 177 l-2 41 -7 -40 c-8 -45 -13
-31 -11 30 0 22 -3 56 -8 75 -9 34 -9 34 -10 -16 -1 -66 -21 -164 -33 -164 -6
0 -7 17 -4 38 10 67 19 232 12 232 -3 0 -7 -17 -7 -37z m40 -236 c-1 -29 0
-57 3 -63 3 -5 11 -27 18 -49 7 -22 17 -46 23 -52 5 -7 6 -13 1 -13 -21 1 -45
30 -60 71 -13 38 -13 52 -3 102 7 31 15 57 17 57 2 0 2 -24 1 -53z m35 -106
c-7 -8 -20 66 -15 84 4 13 8 2 12 -30 3 -27 5 -52 3 -54z"/>
<path d="M4632 4995 c0 -16 2 -22 5 -12 2 9 2 23 0 30 -3 6 -5 -1 -5 -18z"/>
<path d="M5065 4995 c15 -51 24 -119 29 -218 5 -107 4 -109 -20 -132 -29 -27
-25 -51 6 -35 11 6 25 9 31 8 22 -5 39 46 39 122 1 61 3 70 11 50 6 -14 8 -50
4 -82 -7 -69 7 -108 31 -83 8 8 19 34 23 57 l9 43 1 -52 c1 -30 -3 -53 -9 -53
-12 0 -13 -47 -1 -54 15 -9 21 34 20 139 -1 132 -14 177 -21 75 -2 -42 -10
-85 -17 -95 -10 -16 -11 0 -7 88 3 64 1 107 -5 107 -5 0 -9 -19 -10 -42 l-1
-43 -13 48 c-7 27 -15 51 -18 53 -2 2 -7 -40 -10 -93 -8 -136 -25 -177 -26
-63 -1 101 -16 200 -37 244 -8 17 -12 22 -9 11z"/>
<path d="M4667 4948 c-10 -94 -26 -200 -32 -206 -3 -3 -6 37 -7 89 l-1 94 -9
-90 c-4 -49 -8 -110 -8 -135 0 -33 -2 -41 -10 -30 -5 8 -10 26 -10 41 0 14 -5
30 -11 36 -7 7 -15 29 -19 50 l-8 38 -1 -44 c-1 -54 -15 -45 -29 19 -9 40 -10
41 -11 13 -1 -17 3 -43 9 -57 8 -21 7 -26 -7 -26 -9 0 -25 7 -35 17 -14 13
-18 13 -18 2 1 -23 26 -49 49 -49 11 0 21 5 21 11 0 5 5 7 10 4 6 -3 10 -20
10 -36 0 -16 6 -45 14 -63 11 -26 20 -34 38 -32 22 1 24 6 24 46 0 25 6 59 14
75 l13 30 7 -35 c6 -28 8 -21 9 35 1 39 5 65 9 58 4 -6 7 34 6 88 -1 111 -9
138 -17 57z m-90 -280 c-3 -8 -6 -5 -6 6 -1 11 2 17 5 13 3 -3 4 -12 1 -19z"/>
<path d="M4947 4941 c-3 -27 -2 -62 3 -77 6 -22 8 -11 9 49 1 42 -1 77 -3 77
-2 0 -6 -22 -9 -49z"/>
<path d="M4982 4935 c0 -16 2 -22 5 -12 2 9 2 23 0 30 -3 6 -5 -1 -5 -18z"/>
<path d="M5041 4813 c-1 -93 -10 -129 -26 -104 -3 6 -12 50 -20 98 l-14 88 5
-90 c5 -85 4 -89 -12 -70 -16 19 -16 19 -10 -10 4 -16 16 -37 26 -45 10 -8 26
-28 34 -44 l14 -28 7 46 c7 42 9 45 21 29 12 -17 13 -16 14 9 0 15 -5 37 -10
50 -6 13 -14 57 -19 98 l-8 75 -2 -102z"/>
<path d="M4743 4835 c0 -38 2 -53 4 -32 2 20 2 52 0 70 -2 17 -4 1 -4 -38z"/>
<path d="M5211 4874 c0 -11 3 -14 6 -6 3 7 2 16 -1 19 -3 4 -6 -2 -5 -13z"/>
<path d="M5296 4865 c11 -33 15 -277 4 -311 -10 -30 -11 -30 -65 -26 -32 2
-108 -5 -182 -18 -145 -26 -167 -24 -314 35 -97 39 -163 45 -244 20 -27 -8
-49 -13 -50 -12 0 1 -11 24 -23 51 -13 26 -21 50 -19 53 3 2 20 -14 39 -36 41
-48 55 -44 29 8 -10 20 -22 47 -25 61 -6 21 -3 19 16 -10 13 -19 28 -48 33
-64 12 -37 42 -51 31 -15 -5 13 -9 34 -9 47 -1 13 -17 36 -37 52 -30 25 -35
36 -41 87 l-6 58 -3 -50 c-3 -49 -3 -50 -11 -15 -6 25 -6 18 -2 -24 2 -33 8
-66 11 -75 14 -39 -26 11 -43 54 -11 24 -25 47 -32 49 -19 8 -16 -13 12 -68
14 -27 23 -51 21 -54 -8 -7 -76 50 -76 63 0 7 -7 18 -15 25 -14 11 -14 10 -5
-14 14 -39 13 -51 -5 -36 -8 7 -20 27 -25 44 -9 28 -9 27 -5 -13 3 -25 15 -63
25 -85 16 -33 19 -35 15 -13 -3 16 -2 26 3 23 5 -3 12 -23 15 -44 4 -20 14
-46 23 -57 15 -19 15 -19 9 5 -16 66 -18 93 -7 86 7 -4 12 -16 12 -27 0 -25
27 -79 40 -79 14 0 13 5 -10 49 -15 31 -17 40 -6 44 9 4 17 -8 25 -33 6 -22
16 -42 22 -46 6 -3 -38 -33 -98 -66 -113 -63 -141 -83 -131 -94 4 -3 55 19
113 50 213 112 304 121 483 48 152 -62 202 -63 445 -10 45 9 69 10 114 0 62
-13 243 -97 243 -112 0 -6 -19 -10 -42 -10 -27 -1 -78 -16 -138 -41 -52 -23
-137 -54 -188 -69 -52 -16 -96 -31 -99 -34 -3 -3 7 -8 21 -12 37 -9 103 10
209 60 104 50 211 87 254 88 16 1 55 -9 86 -21 65 -24 144 -28 172 -8 19 15
18 33 -4 132 -8 37 -11 33 -15 -20 0 -13 -9 -21 -25 -23 -21 -3 -23 -1 -17 20
17 56 26 102 23 112 -3 6 -9 -5 -15 -24 -9 -30 -10 -31 -11 -10 -1 20 -3 22
-11 10 -7 -12 -10 -8 -11 15 0 17 -4 39 -8 50 -5 13 -10 -12 -13 -70 -5 -94
-3 -109 12 -85 8 12 10 10 10 -7 0 -19 -5 -23 -31 -23 -31 0 -31 1 -23 33 13
53 10 121 -8 158 -9 19 -21 50 -27 69 l-10 35 5 -36 c4 -22 1 -40 -5 -43 -7
-5 -11 3 -11 19 0 40 -20 19 -22 -23 -1 -27 -3 -21 -8 23 l-7 60 -1 -76 c-1
-42 -7 -90 -13 -107 -6 -17 -8 -37 -6 -44 4 -8 8 -4 12 10 11 33 29 27 22 -8
-4 -17 -2 -30 3 -30 11 0 19 28 22 84 2 23 9 41 17 44 11 4 13 -3 8 -32 -17
-94 -19 -112 -7 -93 6 9 15 36 20 60 9 39 9 39 5 -17 -2 -32 -8 -63 -13 -68
-9 -9 -149 26 -163 40 -4 4 2 32 12 62 19 56 27 217 9 175 -5 -11 -9 -40 -10
-65 -1 -63 -32 -171 -46 -162 -12 7 4 113 19 128 4 4 6 21 6 38 l-2 31 -7 -35
-7 -35 -3 45 c-3 41 -3 40 -12 -25 -18 -142 -17 -137 -43 -131 -70 18 -76 23
-73 68 2 30 8 43 18 43 16 0 16 -5 6 -45 -6 -21 -5 -22 4 -7 17 27 33 20 28
-13 -3 -16 -1 -30 3 -30 7 0 13 22 24 100 2 14 0 45 -4 70 -8 44 -9 44 -11 10
-2 -31 -4 -28 -15 25 -7 36 -13 50 -15 35 l-2 -25 -8 25 c-7 20 -8 16 -9 -22
-1 -70 -21 -71 -22 -1 0 49 -2 54 -10 33 -6 -15 -8 -55 -4 -99 5 -52 4 -71 -4
-67 -6 4 -11 25 -11 47 0 22 -4 48 -9 57 -5 10 -14 50 -19 89 -6 39 -15 80
-22 90 -11 17 -11 17 -4 -2z m124 -217 c0 -16 -3 -19 -11 -11 -6 6 -8 16 -5
22 11 17 16 13 16 -11z m-59 -108 c5 0 9 -7 9 -16 0 -12 -7 -14 -32 -9 -18 4
-34 8 -35 9 -2 2 5 22 14 46 l18 44 8 -37 c5 -20 13 -37 18 -37z m89 48 c0
-19 -2 -20 -10 -8 -13 19 -13 30 0 30 6 0 10 -10 10 -22z m207 -60 c-3 -8 -6
-5 -6 6 -1 11 2 17 5 13 3 -3 4 -12 1 -19z"/>
<path d="M4598 4865 c-3 -6 -9 -28 -12 -50 -3 -22 -3 -31 1 -20 3 11 10 23 15
26 5 4 8 17 6 30 -2 13 -6 19 -10 14z"/>
<path d="M5270 4835 c-1 -11 -4 -45 -6 -75 -2 -40 0 -50 7 -37 6 9 8 43 6 75
-2 31 -5 48 -7 37z"/>
<path d="M4311 4774 c0 -11 3 -14 6 -6 3 7 2 16 -1 19 -3 4 -6 -2 -5 -13z"/>
<path d="M5473 4715 c0 -22 2 -30 4 -17 2 12 2 30 0 40 -3 9 -5 -1 -4 -23z"/>
<path d="M4180 4705 c0 -6 9 -34 20 -64 23 -59 20 -79 -4 -34 -21 38 -22 3 -1
-37 14 -26 14 -29 0 -24 -8 4 -15 14 -15 24 0 11 -4 21 -9 24 -5 3 -7 14 -5
24 3 9 -2 33 -10 52 l-15 35 -1 -46 c0 -60 25 -131 57 -160 16 -15 24 -18 21
-9 -7 22 22 39 55 33 33 -7 33 -4 5 50 -11 23 -25 53 -29 67 -6 18 -7 12 -3
-20 6 -53 -7 -45 -26 15 -13 40 -40 88 -40 70z"/>
<path d="M5250 4632 c0 -34 4 -62 9 -62 9 0 3 109 -5 119 -2 2 -4 -23 -4 -57z"/>
<path d="M5591 4585 c0 -70 4 -103 9 -90 5 11 9 52 9 90 0 39 -4 79 -9 90 -5
13 -9 -20 -9 -90z"/>
<path d="M4095 4580 c14 -30 25 -59 25 -65 0 -15 49 -72 50 -57 0 7 -8 25 -17
39 -14 21 -15 27 -4 31 10 3 8 10 -8 26 -11 11 -32 35 -46 51 l-25 30 25 -55z"/>
<path d="M4041 4580 c-1 -31 30 -100 53 -119 28 -23 27 -7 -1 35 -15 21 -33
55 -40 74 -10 30 -12 31 -12 10z"/>
<path d="M5841 4524 c0 -11 3 -14 6 -6 3 7 2 16 -1 19 -3 4 -6 -2 -5 -13z"/>
<path d="M4390 4426 c0 -9 263 -181 315 -206 44 -22 62 -25 145 -23 52 1 124
8 160 17 l65 15 -100 -7 c-206 -14 -245 -4 -412 106 -92 61 -173 107 -173 98z"/>
<path d="M5430 4385 c-10 -12 -6 -13 27 -8 51 8 62 19 19 21 -19 1 -39 -5 -46
-13z"/>
<path d="M5355 4350 c-3 -6 1 -7 9 -4 18 7 21 14 7 14 -6 0 -13 -4 -16 -10z"/>
<path d="M4736 4279 c3 -5 19 -9 35 -9 17 0 40 -5 52 -11 20 -10 20 -10 7 4
-16 16 -104 31 -94 16z"/>
<path d="M4920 4009 c-54 -7 -149 -39 -180 -59 -32 -20 2 -20 72 1 58 18 96
23 183 22 104 0 159 -11 248 -48 10 -4 17 -3 17 3 0 17 -119 69 -184 81 -66
12 -76 12 -156 0z"/>
<path d="M4290 2345 c0 -27 60 -83 123 -113 72 -35 136 -47 327 -62 165 -13
234 -29 415 -91 136 -47 229 -69 287 -69 50 0 30 17 -34 29 -35 7 -137 36
-228 66 -243 79 -261 84 -409 100 -219 25 -348 64 -438 131 -37 28 -43 29 -43
9z"/>
<path d="M5360 1924 c-25 -8 -133 -37 -240 -65 -388 -101 -446 -120 -722 -235
-73 -30 -176 -71 -228 -90 -236 -88 -291 -110 -375 -152 -116 -57 -198 -115
-268 -192 -55 -59 -57 -60 -57 -33 0 33 -30 101 -54 126 -21 21 -50 22 -69 2
-13 -12 -16 -9 -21 29 -8 49 -58 185 -86 231 -10 16 -52 98 -95 180 -103 201
-142 240 -181 180 -15 -22 -15 -32 -4 -68 15 -51 36 -83 113 -167 99 -109 135
-186 161 -351 15 -92 15 -96 -5 -137 -25 -49 -27 -118 -5 -161 19 -35 44 -51
81 -51 24 0 26 3 23 33 -2 26 -8 33 -30 35 -14 2 -38 14 -52 27 -23 21 -25 27
-15 52 6 15 21 42 35 60 25 32 31 53 15 53 -4 0 -11 26 -15 57 -9 78 -50 216
-86 288 -17 36 -60 92 -106 140 -82 87 -107 124 -102 158 4 32 34 32 64 0 28
-30 232 -436 258 -516 9 -26 19 -64 22 -85 3 -21 11 -39 18 -40 50 -7 78 -17
97 -38 20 -22 21 -30 17 -126 -5 -94 -2 -117 32 -268 87 -373 98 -531 43 -592
-26 -29 -37 -21 -60 45 -34 93 -42 152 -53 367 -11 220 -22 289 -51 322 -18
20 -20 20 -14 4 32 -101 47 -218 55 -421 4 -124 13 -233 19 -250 41 -104 78
-148 105 -125 27 22 50 123 49 215 -1 91 -29 278 -62 415 -46 187 -53 229 -47
272 7 40 13 47 97 108 153 111 287 186 474 266 99 42 246 105 327 140 263 115
359 146 783 259 181 48 285 85 285 100 0 18 -12 18 -70 -1z"/>
<path d="M5540 1877 c0 -10 17 -19 52 -26 144 -31 251 -145 303 -325 41 -142
46 -203 55 -661 7 -372 12 -474 29 -587 34 -229 42 -269 58 -275 22 -9 26 3
14 39 -6 18 -25 114 -41 213 -33 194 -37 259 -44 735 -4 243 -8 317 -26 420
-35 203 -85 316 -175 399 -55 50 -90 67 -167 76 -49 6 -58 5 -58 -8z"/>
<path d="M910 1589 c-32 -45 -61 -126 -59 -168 1 -18 5 -10 14 23 17 60 45
100 73 104 29 4 73 -74 116 -208 39 -118 119 -514 166 -815 51 -332 91 -525
108 -525 10 0 12 6 7 23 -13 42 -55 262 -66 347 -19 146 -69 451 -89 540 -10
47 -33 156 -50 243 -36 181 -75 303 -124 391 -52 93 -59 96 -96 45z"/>
<path d="M3330 1177 c0 -1 4 -17 9 -35 9 -29 7 -32 -11 -32 -15 0 -19 5 -15
20 6 24 -8 36 -17 14 -12 -31 -6 -75 10 -81 21 -8 48 9 52 32 6 26 -8 85 -18
85 -6 0 -10 -1 -10 -3z"/>
<path d="M3052 1043 c-46 -148 -105 -268 -268 -548 -77 -132 -148 -258 -158
-280 -10 -22 -33 -71 -51 -110 -44 -96 -47 -105 -30 -105 7 0 17 10 21 22 3
12 10 26 15 32 5 6 31 54 58 106 26 52 99 176 160 275 138 221 231 411 259
525 21 85 38 190 31 190 -2 0 -19 -48 -37 -107z"/>
<path d="M1806 1074 c-12 -32 -7 -51 16 -50 32 1 65 -64 78 -155 6 -41 11
-204 10 -363 0 -159 2 -288 4 -285 2 2 10 108 17 234 14 274 3 474 -33 557
-29 67 -77 100 -92 62z"/>
<path d="M8080 927 c0 -28 51 -191 105 -337 31 -85 79 -220 107 -300 103 -303
97 -290 125 -290 18 0 24 4 19 15 -3 8 -26 79 -51 158 -78 243 -101 305 -222
605 -58 144 -83 189 -83 149z"/>
<path d="M446 763 c9 -199 65 -499 124 -668 12 -33 24 -68 27 -77 3 -10 14
-18 24 -18 17 0 16 5 -8 68 -75 197 -148 555 -155 765 -1 31 -6 57 -10 57 -4
0 -5 -57 -2 -127z"/>
<path d="M3251 763 c-35 -163 -170 -604 -217 -710 -21 -48 -21 -53 -6 -53 24
0 51 63 117 276 75 240 144 544 123 544 -3 0 -10 -26 -17 -57z"/>
<path d="M1900 101 c0 -61 4 -101 10 -101 6 0 10 38 10 94 0 53 -4 98 -10 101
-6 4 -10 -30 -10 -94z"/>
<path d="M2791 125 c-19 -33 -45 -71 -58 -84 -30 -31 -29 -43 4 -39 21 2 33
16 61 69 19 37 32 76 30 90 -3 21 -8 16 -37 -36z"/>
</g>
</svg>
