<?xml version="1.0" standalone="no"?>
<!DOCTYPE svg PUBLIC "-//W3C//DTD SVG 20010904//EN"
 "http://www.w3.org/TR/2001/REC-SVG-20010904/DTD/svg10.dtd">
<svg version="1.0" xmlns="http://www.w3.org/2000/svg"
 width="2348.000000pt" height="1088.000000pt" viewBox="0 0 2348.000000 1088.000000"
 preserveAspectRatio="xMidYMid meet">

<g transform="translate(0.000000,1088.000000) scale(0.100000,-0.100000)"
fill="#000000" stroke="none">
<path d="M7045 10292 c-51 -6 -323 -71 -404 -96 -287 -92 -526 -224 -751 -416
-116 -98 -141 -123 -236 -234 -329 -381 -504 -835 -504 -1306 l0 -149 55 -6
c69 -9 184 1 296 25 451 97 926 438 1241 891 170 244 279 508 327 791 22 128
33 481 16 495 -5 5 -23 7 -40 5z"/>
<path d="M6698 8069 c-201 -26 -423 -86 -838 -227 -343 -117 -566 -183 -641
-189 -118 -10 -221 17 -643 171 -351 128 -488 168 -711 207 -160 27 -275 33
-400 20 -597 -65 -1082 -283 -1460 -658 -391 -387 -652 -926 -755 -1558 -49
-304 -60 -606 -35 -934 64 -812 320 -1600 770 -2366 233 -395 587 -858 880
-1150 313 -312 653 -446 998 -394 167 25 373 87 598 180 365 151 690 209 1004
179 237 -22 402 -63 675 -170 372 -144 526 -182 755 -183 298 -2 529 87 790
304 336 280 614 625 901 1119 111 192 364 735 419 898 9 30 31 69 47 88 25 28
28 37 18 49 -7 8 -18 15 -25 15 -20 0 -206 94 -293 148 -123 77 -236 165 -351
277 -303 293 -503 657 -597 1085 -24 110 -28 152 -32 350 -3 144 0 257 8 315
45 337 177 661 377 927 142 188 351 385 543 511 58 38 107 70 109 72 7 8 -161
204 -240 281 -167 161 -246 222 -422 323 -275 159 -595 260 -969 306 -131 16
-370 18 -480 4z"/>
<path d="M11134 7520 c-133 -35 -220 -101 -314 -240 -45 -66 -57 -102 -69
-200 -12 -88 1 -200 29 -263 38 -89 163 -233 230 -267 91 -45 141 -55 280 -54
157 1 219 18 304 83 160 122 216 234 216 436 0 161 -37 259 -141 369 -41 44
-82 76 -123 96 -121 59 -280 75 -412 40z"/>
<path d="M15000 7474 c-14 -2 -65 -9 -115 -15 -333 -41 -662 -146 -930 -299
-333 -189 -572 -409 -793 -731 -108 -157 -127 -191 -232 -414 -101 -213 -140
-342 -206 -670 -18 -93 -41 -204 -51 -245 -15 -65 -17 -130 -17 -485 0 -356 2
-420 17 -485 10 -41 31 -143 47 -227 33 -172 67 -313 105 -437 36 -120 210
-485 264 -556 14 -19 58 -80 96 -137 84 -122 254 -306 384 -415 229 -193 521
-348 823 -438 241 -72 418 -98 718 -107 482 -13 880 67 1290 259 407 191 780
544 1001 948 110 200 138 261 185 410 25 80 61 192 80 250 66 210 103 473 113
810 11 407 -11 747 -65 995 -18 79 -140 463 -181 564 -14 36 -37 84 -51 106
-14 22 -54 93 -89 158 -66 122 -74 133 -204 303 -79 102 -239 264 -344 346
-452 357 -960 521 -1600 517 -121 -1 -231 -3 -245 -5z m539 -703 c242 -56 437
-159 633 -335 121 -108 275 -310 347 -454 28 -55 51 -103 51 -106 0 -3 23 -53
50 -112 58 -121 99 -260 134 -454 44 -244 51 -330 51 -655 0 -339 -11 -459
-66 -737 -35 -176 -68 -282 -142 -443 -88 -194 -115 -245 -189 -348 -103 -143
-137 -182 -245 -280 -253 -228 -537 -341 -893 -354 -427 -15 -789 134 -1080
446 -102 108 -131 147 -211 279 -24 40 -57 94 -72 120 -38 61 -72 149 -151
384 -109 325 -130 473 -131 908 0 456 25 624 144 975 93 272 107 304 163 389
24 36 65 104 92 151 54 94 210 269 305 344 189 148 388 243 597 285 119 23
134 24 334 21 148 -2 204 -7 279 -24z"/>
<path d="M20162 7465 c-494 -57 -893 -226 -1194 -506 -151 -141 -286 -341
-346 -514 -107 -305 -105 -660 5 -955 41 -111 51 -128 160 -279 123 -172 386
-409 582 -525 198 -117 344 -186 686 -320 273 -108 515 -229 620 -310 171
-132 218 -184 303 -334 70 -125 77 -147 93 -267 16 -127 -5 -335 -40 -379 -4
-6 -25 -42 -46 -81 -64 -119 -131 -199 -219 -261 -143 -101 -306 -165 -516
-201 -135 -24 -483 -23 -645 0 -331 48 -595 125 -852 248 -57 27 -106 49 -110
49 -5 0 -27 -73 -51 -163 -24 -90 -55 -190 -68 -223 -36 -88 -95 -291 -88
-307 6 -17 163 -88 309 -140 685 -245 1624 -250 2220 -10 266 107 446 221 618
391 112 111 139 147 260 340 55 89 111 254 138 410 24 143 26 412 4 552 -35
219 -77 328 -199 511 -130 197 -328 378 -611 558 -244 156 -343 205 -740 366
-213 86 -508 236 -609 309 -118 85 -183 151 -256 257 -52 75 -65 104 -86 185
-39 158 -28 324 32 449 34 71 141 203 199 248 136 103 290 170 470 203 193 36
580 20 820 -33 169 -37 422 -122 503 -170 24 -13 45 -23 46 -21 1 1 13 39 25
83 12 44 40 121 60 170 45 105 136 418 128 439 -3 7 -25 20 -49 29 -24 8 -88
31 -143 51 -199 71 -450 124 -707 151 -178 18 -545 18 -706 0z"/>
<path d="M10832 3873 l3 -1988 442 0 c243 0 444 3 447 6 3 3 7 897 8 1987 l3
1982 -453 0 -452 0 2 -1987z"/>
</g>
</svg>
