<svg width="2348" height="1088" xmlns="http://www.w3.org/2000/svg" preserveAspectRatio="xMidYMid meet">

 <g>
  <title>background</title>
  <rect fill="none" id="canvas_background" height="402" width="582" y="-1" x="-1"/>
 </g>
 <g>
  <title>Layer 1</title>
  <path fill="#DDDDDD" id="svg_2" d="m704.50001,58.799985c-5.1,0.6 -32.3,7.1 -40.400001,9.6c-28.7,9.2 -52.600001,22.4 -75.100001,41.600001c-11.6,9.8 -14.1,12.3 -23.6,23.4c-32.9,38.100001 -50.400001,83.500001 -50.400001,130.600002l0,14.9l5.5,0.6c6.9,0.9 18.4,-0.1 29.6,-2.5c45.100001,-9.7 92.600001,-43.800001 124.100002,-89.100001c17,-24.4 27.9,-50.800001 32.7,-79.100001c2.2,-12.8 3.3,-48.100001 1.6,-49.500001c-0.5,-0.5 -2.3,-0.7 -4,-0.5z"/>
  <path fill="#DDDDDD" id="svg_3" d="m669.80001,281.099988c-20.1,2.6 -42.300001,8.6 -83.800001,22.7c-34.300001,11.7 -56.600001,18.3 -64.100001,18.9c-11.8,1 -22.1,-1.7 -64.300001,-17.1c-35.100001,-12.8 -48.800001,-16.8 -71.100001,-20.7c-16,-2.7 -27.5,-3.3 -40.000001,-2c-59.700001,6.5 -108.200002,28.3 -146.000002,65.800001c-39.100001,38.700001 -65.200001,92.600001 -75.500001,155.800002c-4.9,30.4 -6,60.600001 -3.5,93.400001c6.4,81.200001 32,160.000002 77.000001,236.600004c23.3,39.500001 58.700001,85.800001 88.000001,115.000002c31.3,31.2 65.300001,44.600001 99.800001,39.400001c16.7,-2.5 37.300001,-8.7 59.800001,-18c36.500001,-15.1 69.000001,-20.9 100.400001,-17.9c23.7,2.2 40.200001,6.3 67.500001,17c37.200001,14.4 52.600001,18.2 75.500001,18.3c29.8,0.2 52.900001,-8.7 79.000001,-30.4c33.600001,-28 61.400001,-62.500001 90.100001,-111.900002c11.1,-19.2 36.400001,-73.500001 41.900001,-89.800001c0.9,-3 3.1,-6.9 4.7,-8.8c2.5,-2.8 2.8,-3.7 1.8,-4.9c-0.7,-0.8 -1.8,-1.5 -2.5,-1.5c-2,0 -20.6,-9.4 -29.3,-14.8c-12.3,-7.7 -23.6,-16.5 -35.100001,-27.7c-30.3,-29.3 -50.300001,-65.700001 -59.700001,-108.500002c-2.4,-11 -2.8,-15.2 -3.2,-35.000001c-0.3,-14.4 0,-25.7 0.8,-31.5c4.5,-33.700001 17.7,-66.100001 37.700001,-92.700001c14.2,-18.8 35.100001,-38.500001 54.300001,-51.100001c5.8,-3.8 10.7,-7 10.9,-7.2c0.7,-0.8 -16.1,-20.4 -24,-28.1c-16.7,-16.1 -24.6,-22.2 -42.200001,-32.3c-27.5,-15.9 -59.500001,-26 -96.900001,-30.6c-13.1,-1.6 -37.000001,-1.8 -48.000001,-0.4z"/>
  <path fill="#DDDDDD" id="svg_4" d="m1113.400017,335.999989c-13.3,3.5 -22,10.1 -31.4,24c-4.5,6.6 -5.7,10.2 -6.9,20c-1.2,8.8 0.1,20 2.9,26.3c3.8,8.9 16.3,23.3 23,26.7c9.1,4.5 14.1,5.5 28,5.4c15.7,-0.1 21.9,-1.8 30.4,-8.3c16,-12.2 21.6,-23.4 21.6,-43.600001c0,-16.1 -3.7,-25.9 -14.1,-36.900001c-4.1,-4.4 -8.2,-7.6 -12.3,-9.6c-12.1,-5.9 -28,-7.5 -41.200001,-4z"/>
  <path fill="#DDDDDD" id="svg_5" d="m1500.000022,340.599989c-1.4,0.2 -6.5,0.9 -11.5,1.5c-33.3,4.1 -66.200001,14.6 -93.000001,29.9c-33.3,18.9 -57.200001,40.900001 -79.300001,73.100001c-10.8,15.7 -12.7,19.1 -23.2,41.400001c-10.1,21.3 -14,34.200001 -20.6,67.000001c-1.8,9.3 -4.1,20.4 -5.1,24.5c-1.5,6.5 -1.7,13 -1.7,48.500001c0,35.600001 0.2,42.000001 1.7,48.500001c1,4.1 3.1,14.3 4.7,22.7c3.3,17.2 6.7,31.3 10.5,43.700001c3.6,12 21,48.500001 26.4,55.600001c1.4,1.9 5.8,8 9.6,13.7c8.4,12.2 25.4,30.6 38.400001,41.500001c22.9,19.3 52.100001,34.800001 82.300001,43.800001c24.1,7.2 41.800001,9.8 71.800001,10.7c48.200001,1.3 88.000001,-6.7 129.000002,-25.9c40.700001,-19.1 78.000001,-54.400001 100.100001,-94.800001c11,-20 13.8,-26.1 18.5,-41.000001c2.5,-8 6.1,-19.2 8,-25c6.6,-21 10.3,-47.300001 11.3,-81.000001c1.1,-40.700001 -1.1,-74.700001 -6.5,-99.500001c-1.8,-7.9 -14,-46.300001 -18.1,-56.400001c-1.4,-3.6 -3.7,-8.4 -5.1,-10.6c-1.4,-2.2 -5.4,-9.3 -8.9,-15.8c-6.6,-12.2 -7.4,-13.3 -20.4,-30.3c-7.9,-10.2 -23.9,-26.4 -34.400001,-34.600001c-45.200001,-35.700001 -96.000001,-52.100001 -160.000002,-51.700001c-12.1,0.1 -23.1,0.3 -24.5,0.5zm53.900001,70.300001c24.2,5.6 43.700001,15.9 63.300001,33.5c12.1,10.8 27.5,31 34.700001,45.400001c2.8,5.5 5.1,10.3 5.1,10.6c0,0.3 2.3,5.3 5,11.2c5.8,12.1 9.9,26 13.4,45.400001c4.4,24.4 5.1,33 5.1,65.500001c0,33.900001 -1.1,45.900001 -6.6,73.700001c-3.5,17.6 -6.8,28.2 -14.2,44.300001c-8.8,19.4 -11.5,24.5 -18.9,34.800001c-10.3,14.3 -13.7,18.2 -24.5,28c-25.3,22.8 -53.700001,34.100001 -89.300001,35.400001c-42.700001,1.5 -78.900001,-13.4 -108.000002,-44.600001c-10.2,-10.8 -13.1,-14.7 -21.1,-27.9c-2.4,-4 -5.7,-9.4 -7.2,-12c-3.8,-6.1 -7.2,-14.9 -15.1,-38.400001c-10.9,-32.5 -13,-47.300001 -13.1,-90.800001c0,-45.600001 2.5,-62.400001 14.4,-97.500001c9.3,-27.2 10.7,-30.4 16.3,-38.900001c2.4,-3.6 6.5,-10.4 9.2,-15.1c5.4,-9.4 21,-26.9 30.5,-34.400001c18.9,-14.8 38.800001,-24.3 59.700001,-28.5c11.9,-2.3 13.4,-2.4 33.4,-2.1c14.8,0.2 20.4,0.7 27.9,2.4z"/>
  <path fill="#DDDDDD" id="svg_6" d="m2016.20003,341.499989c-49.400001,5.7 -89.300001,22.6 -119.400002,50.600001c-15.1,14.1 -28.6,34.100001 -34.600001,51.400001c-10.7,30.5 -10.5,66.000001 0.5,95.500001c4.1,11.1 5.1,12.8 16,27.9c12.3,17.2 38.600001,40.900001 58.200001,52.500001c19.8,11.7 34.400001,18.6 68.600001,32c27.3,10.8 51.500001,22.9 62.000001,31c17.1,13.2 21.8,18.4 30.3,33.4c7,12.5 7.7,14.7 9.3,26.7c1.6,12.7 -0.5,33.5 -4,37.900001c-0.4,0.6 -2.5,4.2 -4.6,8.1c-6.4,11.9 -13.1,19.9 -21.9,26.1c-14.3,10.1 -30.6,16.5 -51.600001,20.1c-13.5,2.4 -48.300001,2.3 -64.500001,0c-33.1,-4.8 -59.500001,-12.5 -85.200001,-24.8c-5.7,-2.7 -10.6,-4.9 -11,-4.9c-0.5,0 -2.7,7.3 -5.1,16.3c-2.4,9 -5.5,19 -6.8,22.3c-3.6,8.8 -9.5,29.1 -8.8,30.7c0.6,1.7 16.3,8.8 30.9,14c68.500001,24.5 162.400002,25 222.000003,1c26.6,-10.7 44.600001,-22.1 61.800001,-39.100001c11.2,-11.1 13.9,-14.7 26,-34.000001c5.5,-8.9 11.1,-25.4 13.8,-41.000001c2.4,-14.3 2.6,-41.200001 0.4,-55.200001c-3.5,-21.9 -7.7,-32.8 -19.9,-51.100001c-13,-19.7 -32.8,-37.800001 -61.100001,-55.800001c-24.4,-15.6 -34.300001,-20.5 -74.000001,-36.600001c-21.3,-8.6 -50.800001,-23.6 -60.900001,-30.9c-11.8,-8.5 -18.3,-15.1 -25.6,-25.7c-5.2,-7.5 -6.5,-10.4 -8.6,-18.5c-3.9,-15.8 -2.8,-32.4 3.2,-44.900001c3.4,-7.1 14.1,-20.3 19.9,-24.8c13.6,-10.3 29,-17 47.000001,-20.3c19.3,-3.6 58.000001,-2 82.000001,3.3c16.9,3.7 42.200001,12.2 50.300001,17c2.4,1.3 4.5,2.3 4.6,2.1c0.1,-0.1 1.3,-3.9 2.5,-8.3c1.2,-4.4 4,-12.1 6,-17c4.5,-10.5 13.6,-41.800001 12.8,-43.900001c-0.3,-0.7 -2.5,-2 -4.9,-2.9c-2.4,-0.8 -8.8,-3.1 -14.3,-5.1c-19.9,-7.1 -45.000001,-12.4 -70.700001,-15.1c-17.8,-1.8 -54.500001,-1.8 -70.600001,0z"/>
  <path fill="#DDDDDD" id="svg_7" d="m1083.200016,700.699994l0.3,198.800003l44.200001,0c24.3,0 44.400001,-0.3 44.700001,-0.6c0.3,-0.3 0.7,-89.700001 0.8,-198.700003l0.3,-198.200003l-45.300001,0l-45.200001,0l0.2,198.700003z"/>
 </g>
</svg>