<svg width="2348" height="1088" xmlns="http://www.w3.org/2000/svg" preserveAspectRatio="xMidYMid meet">

 <g>
  <title>background</title>
  <rect fill="none" id="canvas_background" height="402" width="582" y="-1" x="-1"/>
 </g>
 <g>
  <title>Layer 1</title>
  <g id="svg_1" fill="#000000" transform="translate(0,1088) scale(0.10000000149011612,-0.10000000149011612) ">
   <path fill="#BBBBBB" id="svg_2" d="m7045,10292c-51,-6 -323,-71 -404,-96c-287,-92 -526,-224 -751,-416c-116,-98 -141,-123 -236,-234c-329,-381 -504,-835 -504,-1306l0,-149l55,-6c69,-9 184,1 296,25c451,97 926,438 1241,891c170,244 279,508 327,791c22,128 33,481 16,495c-5,5 -23,7 -40,5z"/>
   <path fill="#BBBBBB" id="svg_3" d="m6698,8069c-201,-26 -423,-86 -838,-227c-343,-117 -566,-183 -641,-189c-118,-10 -221,17 -643,171c-351,128 -488,168 -711,207c-160,27 -275,33 -400,20c-597,-65 -1082,-283 -1460,-658c-391,-387 -652,-926 -755,-1558c-49,-304 -60,-606 -35,-934c64,-812 320,-1600 770,-2366c233,-395 587,-858 880,-1150c313,-312 653,-446 998,-394c167,25 373,87 598,180c365,151 690,209 1004,179c237,-22 402,-63 675,-170c372,-144 526,-182 755,-183c298,-2 529,87 790,304c336,280 614,625 901,1119c111,192 364,735 419,898c9,30 31,69 47,88c25,28 28,37 18,49c-7,8 -18,15 -25,15c-20,0 -206,94 -293,148c-123,77 -236,165 -351,277c-303,293 -503,657 -597,1085c-24,110 -28,152 -32,350c-3,144 0,257 8,315c45,337 177,661 377,927c142,188 351,385 543,511c58,38 107,70 109,72c7,8 -161,204 -240,281c-167,161 -246,222 -422,323c-275,159 -595,260 -969,306c-131,16 -370,18 -480,4z"/>
   <path fill="#BBBBBB" id="svg_4" d="m11134,7520c-133,-35 -220,-101 -314,-240c-45,-66 -57,-102 -69,-200c-12,-88 1,-200 29,-263c38,-89 163,-233 230,-267c91,-45 141,-55 280,-54c157,1 219,18 304,83c160,122 216,234 216,436c0,161 -37,259 -141,369c-41,44 -82,76 -123,96c-121,59 -280,75 -412,40z"/>
   <path fill="#BBBBBB" id="svg_5" d="m15000,7474c-14,-2 -65,-9 -115,-15c-333,-41 -662,-146 -930,-299c-333,-189 -572,-409 -793,-731c-108,-157 -127,-191 -232,-414c-101,-213 -140,-342 -206,-670c-18,-93 -41,-204 -51,-245c-15,-65 -17,-130 -17,-485c0,-356 2,-420 17,-485c10,-41 31,-143 47,-227c33,-172 67,-313 105,-437c36,-120 210,-485 264,-556c14,-19 58,-80 96,-137c84,-122 254,-306 384,-415c229,-193 521,-348 823,-438c241,-72 418,-98 718,-107c482,-13 880,67 1290,259c407,191 780,544 1001,948c110,200 138,261 185,410c25,80 61,192 80,250c66,210 103,473 113,810c11,407 -11,747 -65,995c-18,79 -140,463 -181,564c-14,36 -37,84 -51,106c-14,22 -54,93 -89,158c-66,122 -74,133 -204,303c-79,102 -239,264 -344,346c-452,357 -960,521 -1600,517c-121,-1 -231,-3 -245,-5zm539,-703c242,-56 437,-159 633,-335c121,-108 275,-310 347,-454c28,-55 51,-103 51,-106c0,-3 23,-53 50,-112c58,-121 99,-260 134,-454c44,-244 51,-330 51,-655c0,-339 -11,-459 -66,-737c-35,-176 -68,-282 -142,-443c-88,-194 -115,-245 -189,-348c-103,-143 -137,-182 -245,-280c-253,-228 -537,-341 -893,-354c-427,-15 -789,134 -1080,446c-102,108 -131,147 -211,279c-24,40 -57,94 -72,120c-38,61 -72,149 -151,384c-109,325 -130,473 -131,908c0,456 25,624 144,975c93,272 107,304 163,389c24,36 65,104 92,151c54,94 210,269 305,344c189,148 388,243 597,285c119,23 134,24 334,21c148,-2 204,-7 279,-24z"/>
   <path fill="#BBBBBB" id="svg_6" d="m20162,7465c-494,-57 -893,-226 -1194,-506c-151,-141 -286,-341 -346,-514c-107,-305 -105,-660 5,-955c41,-111 51,-128 160,-279c123,-172 386,-409 582,-525c198,-117 344,-186 686,-320c273,-108 515,-229 620,-310c171,-132 218,-184 303,-334c70,-125 77,-147 93,-267c16,-127 -5,-335 -40,-379c-4,-6 -25,-42 -46,-81c-64,-119 -131,-199 -219,-261c-143,-101 -306,-165 -516,-201c-135,-24 -483,-23 -645,0c-331,48 -595,125 -852,248c-57,27 -106,49 -110,49c-5,0 -27,-73 -51,-163c-24,-90 -55,-190 -68,-223c-36,-88 -95,-291 -88,-307c6,-17 163,-88 309,-140c685,-245 1624,-250 2220,-10c266,107 446,221 618,391c112,111 139,147 260,340c55,89 111,254 138,410c24,143 26,412 4,552c-35,219 -77,328 -199,511c-130,197 -328,378 -611,558c-244,156 -343,205 -740,366c-213,86 -508,236 -609,309c-118,85 -183,151 -256,257c-52,75 -65,104 -86,185c-39,158 -28,324 32,449c34,71 141,203 199,248c136,103 290,170 470,203c193,36 580,20 820,-33c169,-37 422,-122 503,-170c24,-13 45,-23 46,-21c1,1 13,39 25,83c12,44 40,121 60,170c45,105 136,418 128,439c-3,7 -25,20 -49,29c-24,8 -88,31 -143,51c-199,71 -450,124 -707,151c-178,18 -545,18 -706,0z"/>
   <path fill="#BBBBBB" id="svg_7" d="m10832,3873l3,-1988l442,0c243,0 444,3 447,6c3,3 7,897 8,1987l3,1982l-453,0l-452,0l2,-1987z"/>
  </g>
 </g>
</svg>