<?xml version="1.0" standalone="no"?>
<!DOCTYPE svg PUBLIC "-//W3C//DTD SVG 20010904//EN"
 "http://www.w3.org/TR/2001/REC-SVG-20010904/DTD/svg10.dtd">
<svg version="1.0" xmlns="http://www.w3.org/2000/svg"
 width="520.000000pt" height="476.000000pt" viewBox="0 0 520.000000 476.000000"
 preserveAspectRatio="xMidYMid meet">

<g transform="translate(0.000000,476.000000) scale(0.100000,-0.100000)"
fill="#000000" stroke="none">
<path d="M2289 3690 c-9 -5 -45 -14 -80 -20 -35 -5 -82 -14 -104 -19 -22 -6
-62 -15 -89 -20 -27 -6 -54 -15 -60 -20 -6 -5 -42 -21 -79 -36 -74 -30 -112
-68 -123 -125 -8 -39 12 -320 31 -440 13 -81 13 -86 -7 -114 -23 -32 -22 -43
17 -221 13 -60 25 -132 27 -160 3 -49 2 -50 -26 -53 -47 -6 -74 -30 -91 -82
-13 -40 -14 -56 -5 -92 13 -47 76 -114 134 -142 53 -25 59 -38 52 -106 -7 -63
3 -78 22 -35 12 26 32 34 32 12 0 -6 -13 -55 -30 -107 -35 -110 -33 -100 -20
-100 5 0 30 39 54 88 l45 87 0 -56 c1 -30 -6 -77 -15 -103 -9 -26 -13 -50 -9
-54 4 -4 10 -2 12 5 2 6 20 31 39 55 20 25 34 54 34 71 0 48 17 29 34 -38 l16
-65 -73 -72 c-41 -40 -89 -99 -108 -130 -19 -31 -61 -90 -94 -131 -33 -41 -78
-98 -100 -126 -22 -29 -48 -62 -57 -73 -10 -12 -34 -49 -53 -83 -39 -71 -59
-90 -92 -90 -12 0 -22 -4 -20 -10 1 -5 13 -9 27 -7 24 3 24 3 6 -16 -9 -11
-28 -23 -40 -26 -21 -5 -24 -14 -30 -83 -20 -223 -71 -511 -119 -668 -24 -78
-25 -158 -4 -220 l14 -40 140 -3 140 -3 7 38 c3 21 6 67 6 103 0 95 16 177 40
208 12 15 47 61 78 103 85 114 138 181 229 287 45 52 99 127 120 165 44 81
182 239 251 288 26 18 74 61 106 96 33 35 64 63 70 62 6 0 29 -21 50 -46 l40
-44 -30 -25 c-16 -13 -61 -47 -100 -74 -95 -65 -220 -214 -279 -331 -15 -30
-31 -56 -34 -59 -4 -3 -31 -41 -60 -85 -30 -44 -71 -101 -93 -127 -21 -26 -66
-94 -100 -150 -33 -57 -80 -131 -104 -164 -24 -34 -44 -65 -44 -69 0 -4 -20
-41 -45 -82 -25 -40 -45 -77 -45 -82 0 -4 291 -7 646 -7 l646 1 -6 52 c-5 42
-3 53 8 53 16 0 26 -30 26 -77 0 -29 3 -33 26 -33 17 0 24 4 21 13 -12 32 -28
128 -22 137 3 5 12 10 19 10 16 0 36 42 36 75 0 13 -15 41 -32 61 -34 39 -34
35 -54 256 -10 113 -24 105 224 129 l124 11 16 -23 c9 -13 29 -37 45 -52 34
-31 29 -47 -7 -28 -32 18 -48 7 -36 -23 7 -19 5 -25 -12 -33 -19 -8 -19 -10
-4 -25 9 -9 16 -27 16 -41 0 -34 7 -37 45 -21 29 12 65 11 65 -2 0 -3 -20 -30
-45 -62 -48 -61 -54 -88 -29 -127 11 -17 14 -36 10 -55 -6 -32 8 -80 27 -92 7
-4 27 -8 45 -8 17 0 32 -4 32 -10 0 -5 23 -10 50 -10 28 0 50 -2 50 -4 0 -3
-4 -15 -9 -28 -9 -23 -12 -23 -157 -27 -82 -1 -151 -5 -153 -7 -2 -2 54 -4
125 -4 71 0 152 -3 180 -6 l51 -6 -2 46 c-2 51 16 63 36 23 23 -45 99 -89 99
-58 0 14 -45 61 -58 61 -6 0 -16 8 -21 19 -9 16 -6 19 31 25 22 4 41 5 42 4 1
-2 16 -22 34 -45 37 -48 38 -53 15 -54 -12 -1 -10 -4 7 -9 35 -11 120 -12 120
-1 0 13 -62 112 -67 107 -5 -5 16 -44 35 -64 21 -23 13 -25 -20 -4 -18 11 -38
30 -44 41 -6 12 -14 18 -17 15 -8 -8 -37 15 -37 28 0 6 7 8 15 4 10 -4 17 3
21 22 12 54 16 62 29 62 27 0 83 -41 89 -65 4 -14 10 -25 15 -25 5 0 4 18 -2
41 -10 42 -52 79 -89 79 -10 0 -24 13 -33 29 -18 36 -61 71 -86 71 -11 0 -19
5 -19 10 0 6 5 10 10 10 6 0 10 6 10 13 0 8 9 22 20 32 26 23 25 49 -1 91 -27
44 -56 64 -95 64 -42 0 -47 8 -24 40 11 16 20 36 20 46 0 28 -40 79 -79 100
-20 11 -38 30 -42 44 -4 14 -7 19 -8 13 -1 -7 -5 -13 -10 -13 -5 0 -9 51 -10
113 -1 111 -8 198 -17 227 -9 27 -24 -11 -25 -65 0 -27 -5 -61 -9 -75 -8 -25
-8 -24 -9 5 -1 17 -13 72 -28 124 -21 70 -37 104 -65 135 -20 22 -39 38 -43
34 -6 -6 -1 -19 41 -98 7 -14 15 -43 17 -65 2 -22 2 -30 0 -18 -2 13 -9 23
-14 23 -5 0 -9 8 -10 18 -1 11 -4 9 -9 -8 l-8 -25 -2 25 c-1 14 -2 29 -1 34 4
18 -9 56 -19 56 -6 0 -8 -22 -5 -57 8 -81 46 -295 55 -313 10 -19 -23 -122
-42 -131 -47 -23 -73 -29 -158 -35 -52 -3 -124 -12 -160 -18 l-65 -12 3 -152
c3 -143 2 -152 -16 -152 -29 0 -98 -54 -113 -88 -7 -17 -17 -28 -21 -26 -4 3
-3 -7 2 -22 6 -15 8 -29 5 -32 -3 -3 -5 -1 -5 4 0 5 -18 -29 -40 -74 -22 -46
-38 -88 -35 -92 11 -18 -75 -22 -308 -14 -133 4 -269 7 -301 6 -50 -3 -57 -1
-47 11 6 8 30 15 54 15 23 1 63 4 90 7 31 5 47 3 47 -4 0 -6 10 -11 23 -11 18
0 19 2 7 10 -11 7 -1 10 35 12 37 1 28 3 -35 8 l-85 6 88 2 c85 2 93 -1 88
-31 -1 -4 8 -2 19 5 14 9 16 14 7 18 -6 3 -12 10 -12 15 0 6 -7 27 -15 47 -12
33 -19 38 -57 44 -24 3 -57 4 -74 0 -27 -5 -29 -4 -19 13 5 11 7 40 4 66 -8
53 -40 85 -86 85 l-29 0 6 78 c4 42 17 113 29 157 13 44 29 105 36 135 13 58
67 180 79 180 5 0 20 21 34 47 48 88 234 241 278 230 8 -2 10 -2 6 1 -13 6 34
52 54 52 20 0 29 -28 29 -98 0 -31 4 -51 9 -47 6 3 11 -19 13 -51 4 -68 28
-90 28 -26 0 22 7 72 16 112 11 49 14 78 7 89 -5 9 -19 32 -31 53 l-23 36 40
46 c22 26 49 66 60 91 11 25 35 68 54 97 38 58 73 123 81 151 7 22 26 22 26
-1 0 -20 39 -46 85 -56 30 -7 30 -7 -8 19 -21 14 -35 31 -31 36 16 26 179 -44
289 -124 39 -28 97 -64 129 -81 83 -41 173 -102 190 -129 8 -12 27 -60 41
-106 25 -80 47 -126 84 -181 27 -39 48 -89 65 -155 8 -33 36 -118 60 -190 62
-178 116 -370 116 -410 0 -18 7 -52 15 -76 14 -38 29 -189 20 -189 -2 0 -12
16 -24 35 -11 19 -27 35 -34 35 -21 0 -57 35 -57 55 0 26 -23 12 -31 -19 -6
-20 -5 -25 4 -18 14 12 69 -33 110 -90 24 -33 31 -36 72 -36 25 0 45 2 45 6 0
3 -12 16 -27 28 -24 19 -27 27 -24 71 3 56 -14 199 -30 253 -6 19 -21 58 -34
85 -14 28 -36 95 -51 150 -14 55 -32 112 -40 126 -7 14 -32 90 -54 169 -39
132 -91 261 -123 299 -7 9 -23 49 -36 89 -27 89 -61 124 -174 183 -45 23 -122
69 -172 102 -124 82 -244 137 -299 137 -49 0 -56 9 -56 66 0 35 0 35 -43 33
-47 -3 -67 5 -67 26 0 7 -4 15 -8 17 -4 2 -18 17 -30 35 -20 28 -21 36 -12 75
6 24 17 70 24 103 9 45 17 61 32 64 30 5 44 21 44 52 0 18 14 44 39 73 49 57
52 65 43 151 l-7 70 -33 -3 c-33 -2 -40 6 -22 24 6 6 12 94 14 218 l3 207 -24
19 c-23 18 -24 20 -13 101 13 107 13 268 0 306 -10 27 -44 53 -71 53 -5 0 -44
16 -85 35 -41 19 -79 35 -85 35 -20 0 -69 31 -69 43 0 28 -51 114 -74 125 -12
5 -50 13 -82 17 -32 4 -74 14 -93 21 -39 16 -69 17 -92 4z m131 -34 c102 -11
142 -38 165 -114 6 -21 5 -22 -22 -10 -15 7 -30 16 -33 20 -10 13 -175 22
-196 10 -16 -9 -14 -11 16 -16 19 -3 55 -7 80 -10 75 -8 177 -42 350 -114 126
-53 133 -65 127 -217 -6 -119 -13 -150 -31 -137 -6 5 -22 9 -36 10 -22 1 -23
0 -7 -9 9 -6 22 -7 29 -3 7 5 8 3 3 -6 -4 -7 -2 -16 6 -21 7 -4 11 -11 7 -14
-9 -9 -89 65 -82 76 3 5 -1 6 -9 3 -18 -7 -50 24 -43 42 3 8 1 14 -4 14 -6 0
-10 -6 -10 -12 0 -9 -3 -9 -8 -3 -4 6 -26 17 -49 25 -24 7 -43 16 -43 19 0 3
-13 12 -30 19 -34 15 -41 33 -10 25 30 -8 24 4 -10 22 -26 13 -29 14 -24 0 5
-12 -5 -15 -62 -15 -38 0 -64 4 -57 8 15 9 33 56 33 86 0 16 -10 27 -40 40
-38 17 -41 16 -64 -1 -36 -26 -32 -31 20 -30 55 2 63 -9 33 -47 -18 -23 -27
-27 -68 -24 l-46 3 2 48 c1 26 6 54 13 62 14 17 0 26 -28 18 -22 -5 -26 -13
-37 -75 -7 -46 7 -74 45 -91 l30 -12 -42 -18 c-23 -9 -37 -12 -30 -5 21 21 13
28 -28 28 -22 0 -40 -4 -40 -10 0 -5 -4 -10 -10 -10 -6 0 -10 28 -10 64 0 57
-2 64 -22 69 -16 5 -29 -2 -48 -23 -20 -23 -29 -27 -38 -18 -17 17 -15 28 3
22 10 -4 18 3 24 19 8 20 15 24 32 20 14 -4 20 -2 18 6 -5 13 -10 14 -47 4
-17 -4 -21 -10 -17 -27 5 -15 4 -17 -3 -7 -6 8 -17 11 -26 8 -22 -9 -32 18
-14 35 57 54 134 111 192 141 52 28 64 38 51 43 -22 9 -80 -12 -120 -41 -16
-12 -41 -30 -55 -39 l-26 -16 10 61 c6 34 12 56 14 49 3 -9 6 -9 11 -1 4 6 34
15 67 20 l59 9 -62 1 c-57 1 -83 14 -50 26 22 9 222 33 237 29 8 -2 35 -6 60
-8z m-320 -45 c0 -5 -9 -7 -20 -4 -11 3 -20 7 -20 9 0 2 9 4 20 4 11 0 20 -4
20 -9z m-65 -11 c-3 -5 -10 -10 -16 -10 -5 0 -9 5 -9 10 0 6 7 10 16 10 8 0
12 -4 9 -10z m-50 -30 c3 -6 -1 -7 -9 -4 -18 7 -21 14 -7 14 6 0 13 -4 16 -10z
m33 -234 c-2 -1 -12 -8 -22 -16 -18 -14 -19 -14 -7 8 7 12 17 20 22 16 6 -3 9
-7 7 -8z m101 -99 c-2 -1 -12 -9 -21 -16 -15 -12 -18 -11 -18 3 0 10 8 16 22
16 12 0 19 -1 17 -3z m324 -60 c81 -35 137 -46 137 -27 0 43 159 -45 219 -121
46 -58 50 -75 21 -112 -11 -14 -20 -30 -20 -36 0 -16 46 -13 60 4 22 26 27 17
33 -62 3 -43 8 -86 12 -95 5 -12 2 -18 -8 -18 -8 0 -22 20 -32 48 -24 63 -39
78 -94 96 -72 23 -123 28 -171 17 -45 -10 -69 -7 -34 4 10 4 27 11 36 16 10 5
29 9 42 9 14 0 28 5 31 10 3 6 15 10 26 10 10 0 19 5 19 10 0 15 -31 25 -39
12 -7 -12 -100 -46 -107 -39 -3 3 8 14 23 26 15 11 33 24 38 29 6 4 18 11 28
15 33 12 12 57 -27 57 -47 0 -146 -82 -146 -122 0 -10 -11 -14 -34 -14 -19 1
-32 5 -29 9 8 13 -58 78 -94 93 -44 19 -60 18 -73 -6 -9 -17 -7 -22 16 -31 15
-5 45 -26 67 -45 21 -20 45 -33 52 -30 9 3 11 -2 8 -15 -7 -25 -21 -24 -93 5
-74 30 -136 28 -213 -7 -32 -14 -57 -24 -57 -22 0 2 9 19 19 37 11 18 29 64
41 102 35 108 58 128 220 187 58 21 84 22 123 6z m-258 -7 c3 -5 1 -10 -4 -10
-6 0 -11 5 -11 10 0 6 2 10 4 10 3 0 8 -4 11 -10z m-188 -42 c-3 -8 -6 -5 -6
6 -1 11 2 17 5 13 3 -3 4 -12 1 -19z m501 -293 c2 -2 1 -13 -3 -25 -5 -16 -12
-20 -28 -16 -12 3 -30 6 -39 6 -25 0 -23 21 2 27 11 3 20 10 20 15 0 8 37 2
48 -7z m-27 -97 c29 -33 38 -58 19 -58 -25 0 1 -103 37 -142 8 -9 23 -47 33
-83 l18 -67 -47 -20 c-39 -17 -51 -18 -85 -8 -62 19 -147 62 -153 78 -4 9 12
32 40 59 45 43 60 73 36 73 -7 0 -36 -24 -65 -54 -38 -38 -54 -62 -54 -81 0
-40 -35 -99 -74 -126 -20 -13 -36 -27 -36 -31 0 -32 118 60 132 102 3 9 12 4
31 -15 25 -28 30 -52 5 -27 -19 19 -30 14 -26 -10 2 -14 12 -25 28 -29 23 -6
24 -7 5 -13 -11 -4 -31 -12 -45 -18 -14 -5 -25 -9 -25 -7 0 2 -15 -6 -32 -16
-18 -11 -33 -23 -33 -29 0 -5 -14 -22 -30 -38 -27 -25 -36 -28 -73 -23 -23 4
-44 10 -47 14 -3 4 -21 12 -40 17 -30 8 -35 14 -38 43 -2 19 -1 45 3 60 6 24
7 24 17 7 16 -28 51 -67 71 -77 30 -17 21 37 -13 73 -16 17 -30 34 -30 39 0 4
-8 9 -17 11 -14 2 -18 15 -19 55 -2 41 1 51 12 46 12 -4 13 0 4 22 -13 34 -7
41 24 27 13 -6 27 -8 30 -5 11 12 6 33 -8 33 -23 0 -40 28 -30 51 9 19 12 18
51 -21 41 -39 45 -41 90 -35 27 3 68 8 93 10 72 8 89 14 101 38 10 19 10 20
-2 11 -18 -14 -89 -26 -89 -14 0 4 12 11 28 14 15 4 48 17 74 28 52 23 78 68
78 133 0 43 13 44 51 3z m-433 -99 l22 -40 -28 3 c-21 2 -27 9 -28 28 -1 13
-7 26 -13 28 -18 6 -13 22 7 22 11 0 27 -16 40 -41z m834 -2 c-24 -23 -24 -23
-7 30 4 12 8 14 17 5 9 -9 7 -17 -10 -35z m-283 -38 c80 -38 145 -41 216 -10
28 12 44 16 38 10 -7 -7 -13 -21 -13 -31 0 -24 29 -81 46 -91 20 -12 17 -55
-6 -92 -20 -32 -51 -169 -49 -215 1 -21 2 -21 6 -5 3 11 9 24 14 30 10 10 3
-41 -12 -89 -5 -16 -9 -44 -9 -61 0 -57 -25 -100 -74 -126 -52 -27 -70 -20
-36 16 18 19 26 22 37 14 18 -16 17 -1 -2 18 -21 21 -40 11 -71 -38 -15 -25
-29 -37 -33 -31 -4 6 -15 11 -26 11 -11 -1 -29 2 -41 6 -18 6 -22 2 -28 -25
-3 -18 -6 -49 -6 -68 0 -64 -19 -21 -22 51 -5 106 -22 85 -28 -33 -5 -113 -4
-113 -36 -12 -2 7 -8 11 -13 7 -6 -3 -6 -18 0 -38 30 -95 49 -169 49 -184 -1
-33 -20 12 -50 115 -15 53 -34 111 -41 127 l-12 30 -6 -33 c-6 -33 -6 -33 -27
-14 -31 30 -64 45 -64 31 0 -7 -9 -2 -20 11 -11 13 -20 19 -20 15 0 -4 -9 0
-20 10 -11 10 -20 25 -20 33 0 8 -11 23 -25 34 -14 11 -25 25 -25 32 0 7 -11
26 -25 42 -14 16 -28 37 -31 46 -3 9 -13 18 -22 21 -9 2 11 7 46 11 44 6 72
15 92 33 16 13 34 22 38 19 5 -3 33 4 63 15 30 12 84 25 121 30 57 8 74 6 118
-11 57 -22 70 -24 70 -10 0 5 -17 17 -37 27 -29 13 -60 17 -133 16 -85 -2 -93
-1 -76 12 38 29 154 22 216 -12 81 -45 150 -73 150 -60 0 7 -17 23 -38 36 -21
13 -43 33 -48 44 -11 25 -40 38 -31 13 9 -22 -1 -20 -39 9 -18 14 -39 25 -48
25 -29 0 -24 16 10 35 49 26 57 45 39 95 -19 55 -19 58 5 27 11 -14 20 -28 20
-32 0 -4 9 -14 21 -23 11 -10 32 -39 47 -66 25 -47 52 -71 52 -47 0 27 -52
119 -84 149 -20 19 -36 40 -36 48 0 8 -7 17 -15 20 -8 4 -15 12 -15 19 0 7
-11 29 -25 49 -13 20 -23 36 -22 36 2 0 23 -9 46 -21z m343 -11 c-7 -7 -12 -8
-12 -2 0 6 3 14 7 17 3 4 9 5 12 2 2 -3 -1 -11 -7 -17z m-704 -22 c11 -11 -4
-13 -60 -9 -32 3 -58 10 -58 16 0 10 107 4 118 -7z m676 -12 c3 -9 6 -24 6
-35 0 -18 -1 -18 -21 2 -11 11 -18 27 -15 35 7 19 22 18 30 -2z m96 -159 c0
-58 -4 -77 -21 -99 -11 -14 -28 -25 -37 -24 -13 2 -18 -7 -22 -39 -6 -40 -16
-62 -24 -52 -5 6 17 152 39 264 3 14 13 20 35 21 l30 1 0 -72z m-1157 36 c27
-11 40 -44 24 -60 -9 -9 0 -22 33 -51 29 -25 39 -39 29 -40 -27 0 -65 37 -87
83 -28 60 -47 65 -83 25 -22 -26 -29 -29 -29 -15 0 24 44 67 69 67 11 0 31 -4
44 -9z m-33 -92 c0 -18 -18 -9 -23 12 -4 16 -3 18 9 8 8 -6 14 -15 14 -20z
m-59 -16 c1 -10 1 -21 1 -24 -1 -4 10 -10 23 -13 24 -6 35 -26 15 -26 -5 0
-10 5 -10 10 0 6 -7 10 -15 10 -13 0 -14 -4 -5 -20 6 -11 8 -20 5 -20 -5 0
-45 85 -45 96 0 14 30 1 31 -13z m74 -83 c3 -5 1 -10 -4 -10 -6 0 -11 5 -11
10 0 6 2 10 4 10 3 0 8 -4 11 -10z m496 -20 c-24 -11 -48 -20 -55 -20 -19 1
58 39 79 39 12 0 2 -8 -24 -19z m-389 -58 c11 -13 11 -14 -2 -7 -8 5 -25 10
-38 11 -13 0 -27 5 -32 10 -6 6 3 8 25 6 19 -2 40 -11 47 -20z m949 -378 c13
-14 22 -41 26 -72 4 -45 2 -52 -20 -67 -14 -9 -42 -53 -67 -108 -47 -103 -107
-197 -126 -197 -7 0 -16 35 -25 101 -11 92 -11 103 5 127 52 80 89 179 94 247
3 48 9 73 21 81 13 10 20 4 44 -39 15 -28 37 -61 48 -73z m-166 34 c-2 -32
-13 -73 -28 -103 l-25 -49 -1 73 c0 59 3 78 21 102 12 16 25 29 29 29 3 0 5
-24 4 -52z m-578 20 c-3 -8 -6 -5 -6 6 -1 11 2 17 5 13 3 -3 4 -12 1 -19z
m817 -34 c10 -4 16 -18 16 -38 l0 -31 -20 30 c-28 42 -27 51 4 39z m-594 -29
c13 -14 19 -25 14 -25 -12 0 -26 11 -43 33 -21 26 2 20 29 -8z m-250 -50 c0
-14 6 -41 14 -60 14 -34 7 -53 -14 -40 -14 9 -13 3 11 -68 22 -65 77 -188 89
-197 3 -3 12 -21 20 -40 8 -19 31 -51 52 -72 l37 -37 -30 -26 c-17 -14 -34
-25 -38 -25 -4 0 -15 15 -26 33 -10 17 -30 46 -45 63 -37 43 -137 213 -145
247 -4 15 -3 47 3 70 6 23 16 65 22 92 20 83 21 85 36 85 8 0 14 -10 14 -25z
m120 -23 c0 -13 48 -32 65 -26 8 3 36 7 62 8 45 1 49 -1 65 -34 9 -19 17 -48
18 -63 0 -16 4 -26 10 -22 21 13 9 -25 -12 -39 -12 -9 -19 -16 -15 -16 4 0 -2
-18 -13 -40 -22 -44 -24 -45 -66 -30 -23 9 -36 26 -63 88 -18 42 -34 89 -35
104 0 14 -5 30 -10 35 -5 5 -7 1 -3 -9 4 -10 2 -18 -3 -18 -6 0 -10 6 -11 13
0 6 -2 22 -5 35 -2 12 1 22 6 22 6 0 10 -4 10 -8z m145 -2 c3 -5 -1 -10 -9
-10 -9 0 -16 5 -16 10 0 6 4 10 9 10 6 0 13 -4 16 -10z m-161 -110 c8 -16 10
-30 5 -30 -8 0 -29 41 -29 56 0 12 10 1 24 -26z m328 -32 c-9 -9 -12 -7 -12
12 0 19 3 21 12 12 9 -9 9 -15 0 -24z m-326 -32 c10 -8 16 -17 13 -20 -3 -4
-17 2 -30 13 -27 23 -13 28 17 7z m274 -59 c-4 -19 -18 -46 -31 -62 -70 -83
-83 -95 -99 -95 -37 0 -31 21 19 69 28 27 51 54 51 59 0 16 51 73 60 67 4 -3
5 -20 0 -38z m-198 -45 c9 -7 22 -11 27 -7 20 12 31 -5 18 -25 -18 -31 -40
-24 -65 21 -23 40 -17 43 20 11z m248 14 c0 -15 -18 -31 -26 -23 -7 7 7 37 17
37 5 0 9 -6 9 -14z m-220 -151 c7 -14 17 -25 22 -25 4 0 8 -4 8 -10 0 -22 -49
14 -70 52 l-22 40 24 -16 c14 -9 31 -27 38 -41z m1071 -168 c-10 -9 -11 -8 -5
6 3 10 9 15 12 12 3 -3 0 -11 -7 -18z m23 -42 c-4 -8 -10 -12 -15 -9 -11 6 -2
24 11 24 5 0 7 -7 4 -15z m26 -22 c0 -19 -3 -24 -10 -17 -6 6 -8 18 -4 27 9
24 14 21 14 -10z m-1905 -43 c-3 -5 -11 -10 -16 -10 -6 0 -7 5 -4 10 3 6 11
10 16 10 6 0 7 -4 4 -10z m1922 -62 c-3 -8 -6 -5 -6 6 -1 11 2 17 5 13 3 -3 4
-12 1 -19z m3 -140 c1 -26 10 -41 45 -71 49 -42 78 -45 83 -9 5 30 29 25 55
-11 19 -25 20 -31 9 -75 -7 -26 -20 -54 -28 -62 -12 -12 -14 -9 -14 28 0 38
-2 42 -24 42 -14 0 -28 -4 -31 -10 -15 -25 -89 2 -114 42 -13 21 -17 130 -6
148 13 20 25 9 25 -22z m67 -20 c35 -34 41 -48 20 -48 -16 0 -67 52 -67 68 0
19 12 14 47 -20z m-1389 -199 c-3 -8 -7 -3 -11 10 -4 17 -3 21 5 13 5 -5 8
-16 6 -23z m1357 10 c4 -6 19 -7 36 -4 22 5 29 3 29 -9 0 -10 -9 -16 -25 -16
-17 0 -23 -4 -19 -15 4 -8 10 -13 14 -10 5 3 6 -4 3 -15 -3 -11 -10 -20 -15
-20 -5 0 -6 -4 -3 -10 8 -13 -1 -13 -24 2 -15 9 -17 16 -10 30 5 10 6 17 2 16
-10 -4 -13 5 -13 37 0 26 14 33 25 14z m-67 -43 c-2 -10 -7 -13 -17 -7 -8 6
-11 16 -7 27 8 21 30 4 24 -20z m315 -16 c14 -11 28 -34 32 -51 6 -26 2 -36
-30 -67 -20 -20 -41 -47 -46 -59 -5 -13 -13 -23 -19 -23 -14 0 -13 16 3 32 17
17 37 53 37 68 0 6 -7 13 -15 16 -16 7 -45 -18 -45 -38 0 -15 -73 -98 -87 -98
-5 0 -16 15 -24 33 -11 26 -19 32 -41 30 -35 -3 -35 4 0 42 15 17 38 45 51 63
46 65 135 90 184 52z m-303 -31 c0 -5 -7 -9 -15 -9 -15 0 -20 12 -9 23 8 8 24
-1 24 -14z m-1313 -21 c-3 -7 -5 -2 -5 12 0 14 2 19 5 13 2 -7 2 -19 0 -25z
m868 -131 c0 -1 8 -15 18 -32 10 -16 25 -45 33 -64 14 -31 14 -34 -5 -48 -12
-8 -21 -23 -21 -35 0 -13 -5 -18 -13 -15 -31 12 -129 80 -134 93 -5 15 15 53
51 92 15 17 27 21 46 17 14 -4 25 -7 25 -8z m485 3 c0 -5 10 -9 23 -7 18 2 23
-4 25 -31 3 -27 -1 -34 -22 -42 -14 -5 -32 -7 -40 -4 -20 8 -29 50 -16 74 11
21 30 27 30 10z m328 -33 c21 -19 23 -29 20 -75 -3 -31 -11 -58 -19 -62 -19
-12 -137 -48 -182 -55 l-37 -6 6 38 c3 26 1 44 -9 57 -14 18 -18 19 -56 6 -22
-7 -41 -17 -41 -22 0 -10 3 -10 33 1 30 12 43 -9 27 -40 -16 -29 -69 -22 -81
10 -6 13 -8 29 -6 36 6 14 140 80 192 94 22 6 48 20 58 32 22 25 59 20 95 -14z
m-1609 4 c8 -14 7 -20 -4 -25 -9 -3 -15 0 -15 9 0 8 -4 15 -10 15 -5 0 -10 5
-10 10 0 17 29 11 39 -9z m48 -93 c-3 -8 -6 -5 -6 6 -1 11 2 17 5 13 3 -3 4
-12 1 -19z m658 -58 c3 -5 1 -10 -4 -10 -6 0 -11 5 -11 10 0 6 2 10 4 10 3 0
8 -4 11 -10z m-641 -26 c10 -25 7 -34 -9 -34 -9 0 -15 9 -15 25 0 28 15 34 24
9z m-111 -51 c-7 -2 -21 -2 -30 0 -10 3 -4 5 12 5 17 0 24 -2 18 -5z m797 -49
c0 -2 -7 -4 -15 -4 -8 0 -15 4 -15 10 0 5 7 7 15 4 8 -4 15 -8 15 -10z m-77
-1 c-7 -2 -21 -2 -30 0 -10 3 -4 5 12 5 17 0 24 -2 18 -5z"/>
<path d="M2320 3631 c0 -5 7 -11 15 -15 8 -3 15 -1 15 3 0 5 -7 11 -15 15 -8
3 -15 1 -15 -3z"/>
<path d="M2350 3160 c-19 -6 -14 -8 22 -7 26 1 42 5 35 9 -14 9 -23 9 -57 -2z"/>
<path d="M2278 3133 c7 -3 16 -2 19 1 4 3 -2 6 -13 5 -11 0 -14 -3 -6 -6z"/>
<path d="M2670 3041 c0 -5 11 -20 25 -35 14 -15 25 -34 25 -42 0 -16 9 -18 28
-5 8 4 12 21 10 37 -2 24 -10 30 -45 40 -24 7 -43 9 -43 5z"/>
<path d="M2165 3003 c-3 -8 -5 -15 -5 -16 0 -10 76 -2 86 8 20 20 18 22 -31
22 -29 0 -46 -5 -50 -14z"/>
<path d="M2792 2961 c2 -7 7 -12 11 -12 12 1 9 15 -3 20 -7 2 -11 -2 -8 -8z"/>
<path d="M2280 2920 c0 -5 5 -10 11 -10 5 0 7 5 4 10 -3 6 -8 10 -11 10 -2 0
-4 -4 -4 -10z"/>
<path d="M2618 2548 c9 -9 15 -9 24 0 9 9 7 12 -12 12 -19 0 -21 -3 -12 -12z"/>
<path d="M2708 2503 c-10 -2 -18 -9 -18 -14 0 -12 97 -12 104 0 11 17 -42 26
-86 14z"/>
<path d="M2505 2133 c-39 -9 -80 -27 -100 -43 -11 -10 -30 -21 -42 -25 -35
-10 -28 -28 7 -20 23 5 30 3 30 -8 0 -9 5 -17 12 -19 8 -3 5 -14 -9 -34 -28
-39 -32 -67 -11 -72 12 -2 19 5 24 22 4 19 13 26 29 26 15 0 42 19 73 49 42
43 49 55 48 88 -2 40 -14 47 -61 36z"/>
<path d="M2242 2053 c2 -10 10 -18 18 -18 8 0 16 8 18 18 2 12 -3 17 -18 17
-15 0 -20 -5 -18 -17z"/>
<path d="M2776 2014 c-8 -21 -8 -24 3 -24 5 0 11 9 14 20 6 24 -8 27 -17 4z"/>
<path d="M2682 1781 c-7 -18 -7 -31 -2 -31 11 0 25 48 17 56 -2 3 -9 -9 -15
-25z"/>
<path d="M2280 1591 c0 -6 4 -13 10 -16 6 -3 7 1 4 9 -7 18 -14 21 -14 7z"/>
<path d="M2296 1547 c3 -10 9 -15 12 -12 3 3 0 11 -7 18 -10 9 -11 8 -5 -6z"/>
<path d="M3900 3229 c0 -8 7 -23 15 -33 8 -11 15 -35 15 -53 0 -27 -5 -35 -26
-43 -41 -16 -51 -12 -58 25 -9 46 -20 44 -35 -5 -6 -22 -16 -40 -20 -40 -16 0
-22 -33 -10 -67 13 -40 22 -41 87 -7 42 21 67 27 138 29 l87 2 13 39 c24 70
14 124 -23 124 -7 0 -13 -8 -13 -19 0 -10 -5 -32 -11 -50 -9 -25 -16 -31 -40
-31 -30 0 -30 0 -24 48 8 58 -6 80 -58 89 -28 4 -37 2 -37 -8z"/>
<path d="M872 3130 c1 -38 -1 -72 -4 -75 -3 -3 -28 -14 -56 -24 -50 -19 -50
-19 -56 3 -3 11 -6 32 -6 46 0 31 -26 70 -46 70 -11 0 -14 -14 -14 -60 0 -68
-13 -86 -92 -123 -26 -12 -47 -26 -48 -31 0 -5 11 -24 26 -43 20 -26 32 -33
60 -33 48 0 43 -20 -16 -54 -27 -16 -52 -37 -55 -45 -4 -11 13 -34 54 -73 34
-31 61 -61 61 -67 0 -6 7 -11 15 -11 11 0 15 14 16 58 2 53 5 123 8 165 1 13
10 17 44 17 23 0 60 9 82 20 21 11 41 17 44 14 7 -7 -48 -56 -101 -90 -69 -45
-42 -57 52 -24 82 29 80 31 80 -60 0 -72 -2 -80 -19 -80 -10 0 -25 7 -32 16
-11 14 -11 18 5 29 11 9 16 23 14 42 -3 24 -8 28 -40 31 -32 3 -38 0 -43 -21
-5 -16 1 -35 18 -60 37 -54 93 -117 104 -117 19 0 34 85 31 175 l-3 90 35 5
c46 7 47 33 2 40 -47 7 -44 22 11 48 78 37 58 64 -43 54 -60 -5 -66 10 -14 38
37 21 41 70 7 85 -16 7 -21 15 -17 31 8 33 -3 60 -32 72 -14 7 -27 12 -30 12
-2 0 -3 -31 -2 -70z m-52 -149 c0 -5 9 -13 20 -16 31 -10 24 -22 -27 -45 -47
-20 -67 -20 -45 2 7 7 12 22 12 33 0 12 3 25 7 28 10 10 33 8 33 -2z m-70 -51
c-12 -23 -30 -27 -30 -7 0 17 10 27 27 27 11 0 11 -5 3 -20z m-74 -192 c-3
-13 -6 -26 -6 -30 0 -12 -25 -9 -38 4 -9 9 -8 16 5 30 23 26 47 24 39 -4z"/>
<path d="M1305 3111 c3 -17 2 -32 -4 -36 -6 -3 -11 -13 -11 -21 0 -19 86 -19
106 0 35 36 -1 86 -62 86 -34 0 -35 -1 -29 -29z"/>
<path d="M3190 3124 c0 -8 5 -25 11 -36 6 -11 12 -62 13 -112 l2 -91 -54 -52
c-58 -56 -56 -74 1 -23 19 17 40 30 46 30 15 0 14 -47 -1 -57 -21 -13 -118
-30 -111 -19 4 5 -1 7 -11 3 -10 -4 -24 -7 -32 -7 -17 0 -19 -39 -2 -75 14
-30 39 -32 94 -6 50 24 240 38 298 22 58 -15 86 -6 86 30 0 45 -43 62 -147 57
l-85 -3 7 65 c4 36 12 68 19 72 10 7 84 35 114 44 21 6 13 49 -13 74 -19 18
-31 22 -60 17 -29 -5 -37 -2 -46 15 -20 38 -63 67 -96 68 -23 0 -33 -5 -33
-16z"/>
<path d="M1550 3080 c-25 -10 -55 -19 -67 -19 -33 -1 -29 -33 10 -77 32 -37
32 -38 32 -143 0 -88 -3 -106 -15 -106 -11 0 -17 16 -21 60 -6 65 -14 91 -37
118 -28 32 -33 18 -26 -70 6 -86 6 -89 -20 -112 -27 -25 -34 -55 -15 -66 6 -4
46 3 90 16 73 21 85 22 166 11 48 -6 91 -8 94 -4 4 4 1 22 -7 41 l-14 33 -65
-4 -66 -4 3 40 c3 38 5 41 51 55 32 10 47 20 47 32 0 24 -27 42 -63 42 -34 0
-67 21 -67 43 0 8 15 20 33 27 17 8 41 24 51 36 16 17 17 25 8 46 -14 30 -39
31 -102 5z"/>
<path d="M1270 2970 c-25 -16 -55 -30 -67 -30 -26 0 -29 -16 -11 -55 10 -21
18 -25 56 -25 l45 0 -6 -86 c-8 -110 -1 -146 26 -142 15 2 28 22 49 72 36 88
37 108 3 76 l-24 -23 5 54 c3 30 10 75 15 101 12 52 0 88 -29 88 -9 0 -37 -14
-62 -30z"/>
<path d="M3915 2991 c-24 -10 -75 -60 -75 -72 0 -5 -4 -9 -10 -9 -5 0 -10 9
-10 19 0 16 -18 41 -21 29 -5 -18 -9 -318 -4 -335 3 -13 12 -23 20 -23 12 0
13 13 8 68 l-6 67 25 -23 c19 -17 31 -21 57 -16 18 4 38 15 44 25 15 24 21 24
56 -2 16 -12 34 -19 39 -15 10 6 22 -24 22 -56 0 -21 -31 -24 -60 -6 -38 24
-31 -2 16 -56 38 -44 52 -55 68 -50 12 4 23 9 26 11 17 16 9 403 -9 432 -10
15 -157 25 -186 12z m115 -51 c18 -18 20 -32 18 -122 0 -57 -3 -88 -5 -71 -3
19 -12 37 -23 43 -16 8 -18 18 -13 64 5 48 3 55 -16 66 -18 9 -20 14 -10 26
15 19 25 18 49 -6z m-80 -44 c0 -19 -3 -37 -7 -39 -5 -3 -32 -2 -60 0 -41 4
-53 9 -53 22 0 21 54 49 93 50 24 1 27 -2 27 -33z m-77 -87 c24 -28 18 -51
-15 -60 -34 -9 -39 -2 -31 44 6 42 20 47 46 16z"/>
<path d="M3577 944 c-4 -4 -7 -14 -7 -23 0 -11 3 -12 11 -4 6 6 10 16 7 23 -2
6 -7 8 -11 4z"/>
<path d="M3096 594 c-11 -10 -16 -34 -16 -69 0 -29 -3 -60 -6 -69 -4 -11 2
-19 19 -25 14 -5 27 -16 30 -23 2 -7 8 -9 13 -5 4 4 3 16 -4 25 -21 29 -35 62
-30 67 3 3 19 -8 36 -25 30 -29 52 -39 52 -22 0 5 -13 26 -30 48 -20 27 -30
51 -30 77 0 40 -10 46 -34 21z"/>
<path d="M3268 580 c3 -23 0 -30 -13 -30 -14 0 -16 -6 -11 -26 4 -15 10 -39
13 -55 5 -24 10 -29 35 -29 28 0 29 2 22 32 -3 18 -8 52 -9 75 -4 48 -11 63
-29 63 -8 0 -11 -10 -8 -30z"/>
<path d="M3810 378 c14 -7 48 -22 76 -35 61 -28 74 -29 74 -5 0 13 -16 22 -58
35 -32 9 -71 17 -87 16 l-30 0 25 -11z"/>
<path d="M3158 33 c23 -2 61 -2 85 0 23 2 4 4 -43 4 -47 0 -66 -2 -42 -4z"/>
</g>
</svg>
