<?xml version="1.0" standalone="no"?>
<!DOCTYPE svg PUBLIC "-//W3C//DTD SVG 20010904//EN"
 "http://www.w3.org/TR/2001/REC-SVG-20010904/DTD/svg10.dtd">
<svg version="1.0" xmlns="http://www.w3.org/2000/svg"
 width="1280.000000pt" height="1280.000000pt" viewBox="0 0 1280.000000 1280.000000"
 preserveAspectRatio="xMidYMid meet">

<g transform="translate(0.000000,1280.000000) scale(0.100000,-0.100000)"
fill="#000000" stroke="none">
<path d="M6145 12249 c-1267 -53 -2458 -506 -3438 -1307 -167 -137 -430 -383
-548 -514 -51 -56 -112 -123 -135 -148 -213 -228 -525 -675 -723 -1038 -346
-633 -565 -1324 -665 -2102 -22 -168 -36 -432 -36 -686 0 -1367 464 -2650
1343 -3708 876 -1055 2128 -1767 3512 -1996 343 -56 464 -65 930 -65 469 0
510 3 892 60 437 66 911 197 1308 360 50 21 111 46 138 56 82 33 427 208 562
287 455 263 816 541 1191 916 280 281 425 449 595 690 40 55 84 117 98 136 85
112 274 430 378 635 504 989 708 2081 602 3215 -63 680 -256 1359 -568 1995
-656 1339 -1833 2384 -3255 2889 -687 244 -1435 356 -2181 325z m639 -910
c156 -39 184 -61 626 -483 233 -223 399 -376 407 -376 5 0 10 41 10 90 0 98 9
121 67 164 27 21 39 21 602 24 549 2 576 2 611 -17 21 -10 47 -29 58 -41 20
-22 20 -40 25 -777 l5 -755 40 -35 c70 -63 175 -161 370 -347 105 -100 255
-242 335 -316 79 -74 248 -234 375 -356 126 -121 332 -316 457 -433 252 -235
283 -269 300 -323 35 -118 -109 -252 -314 -293 -60 -12 -152 -15 -420 -15
-189 0 -348 -4 -354 -8 -9 -5 -12 -470 -10 -1832 0 -1004 -3 -1838 -7 -1853
-6 -21 -21 -34 -55 -50 l-47 -22 -1310 0 -1310 0 -38 24 c-78 48 -71 -58 -77
1212 -5 1236 -1 1154 -61 1185 -23 12 -113 14 -524 14 l-497 0 -28 -28 c-53
-53 -53 -52 -49 -1231 2 -597 0 -1096 -4 -1108 -4 -12 -29 -32 -55 -45 l-47
-23 -1275 -3 c-924 -2 -1289 0 -1328 8 -35 8 -63 22 -87 44 l-35 33 0 1836 c0
1664 -1 1835 -16 1841 -9 3 -168 6 -355 6 -367 0 -441 7 -546 55 -29 13 -75
44 -102 70 -81 76 -100 140 -62 213 22 42 151 170 541 537 151 142 363 342
470 444 182 174 241 229 461 436 46 44 165 157 264 251 99 94 257 242 350 329
94 88 256 240 360 340 105 100 267 253 360 340 94 88 251 236 350 330 99 94
252 238 340 320 89 83 251 236 362 340 110 105 225 205 255 223 141 85 408
111 612 61z"/>
</g>
</svg>
