<?xml version="1.0" standalone="no"?>
<!DOCTYPE svg PUBLIC "-//W3C//DTD SVG 20010904//EN"
 "http://www.w3.org/TR/2001/REC-SVG-20010904/DTD/svg10.dtd">
<svg version="1.0" xmlns="http://www.w3.org/2000/svg"
 width="945.000000pt" height="490.000000pt" viewBox="0 0 945.000000 490.000000"
 preserveAspectRatio="xMidYMid meet">

<g transform="translate(0.000000,490.000000) scale(0.100000,-0.100000)"
fill="#000000" stroke="none">
<path d="M3217 4674 c-15 -8 -32 -26 -37 -40 -6 -14 -10 -95 -10 -181 l0 -155
-50 37 c-131 96 -341 106 -489 24 l-53 -30 -15 20 c-19 28 -56 46 -124 61 -46
10 -65 10 -105 -1 -33 -10 -86 -13 -161 -11 l-113 4 0 85 c0 157 12 153 -450
153 -383 0 -415 -4 -439 -48 -12 -22 -15 -191 -5 -229 12 -43 51 -57 159 -59
l100 -2 3 -302 c3 -335 3 -339 69 -361 21 -7 76 -10 139 -7 98 3 106 5 132 31
l27 27 3 308 3 307 79 -2 80 -1 2 -299 c4 -381 -3 -368 183 -368 175 0 179 5
183 244 2 123 6 179 15 187 9 9 24 9 58 1 45 -11 47 -12 44 -44 -2 -18 5 -67
15 -109 41 -173 163 -269 370 -290 102 -11 248 33 312 93 l26 25 7 -30 c3 -16
17 -40 31 -53 24 -22 33 -24 138 -24 78 0 121 4 139 14 23 12 29 12 43 0 23
-19 230 -20 266 0 30 16 48 50 48 93 l0 31 20 -25 c11 -14 43 -40 71 -58 184
-119 525 -83 634 67 16 23 33 42 36 42 4 1 9 -11 12 -26 9 -41 61 -98 111
-123 99 -48 293 -31 355 30 l28 28 65 -33 c159 -80 364 -65 490 35 44 36 48
36 48 7 0 -64 57 -88 196 -84 153 5 164 22 164 268 0 179 2 184 68 166 l42
-11 0 -51 c0 -143 77 -272 199 -334 51 -26 166 -51 234 -51 68 0 175 23 225
49 93 48 165 137 164 205 0 22 -1 73 -1 111 0 207 -91 356 -248 405 -136 42
-281 31 -387 -29 -50 -28 -53 -28 -64 -10 -28 45 -148 77 -220 59 -27 -7 -101
-12 -174 -11 -163 3 -198 -12 -198 -85 0 -24 -1 -24 -53 15 -100 76 -228 103
-359 76 -86 -17 -123 -32 -175 -72 -30 -21 -33 -22 -33 -6 -1 38 -35 65 -89
71 l-51 5 0 83 c0 151 -26 169 -189 136 -149 -31 -168 -48 -170 -157 l-1 -50
-16 33 c-26 52 -88 116 -141 145 -166 90 -424 67 -552 -48 l-41 -37 0 56 c0
106 -30 126 -182 126 -68 -1 -111 -5 -128 -14 -21 -12 -29 -12 -52 0 -38 20
-223 19 -261 -2z m223 -514 l0 -440 -90 0 -90 0 0 440 0 440 90 0 90 0 0 -440z
m310 0 l0 -440 -90 0 -90 0 0 440 0 440 90 0 90 0 0 -440z m611 368 c64 -29
110 -75 139 -134 30 -65 28 -69 -47 -83 -38 -7 -78 -14 -89 -17 -18 -5 -25 3
-43 39 -26 53 -67 77 -136 77 -79 0 -124 -38 -113 -96 4 -24 61 -62 112 -74
260 -66 346 -130 354 -267 8 -125 -57 -214 -182 -248 -92 -25 -261 -18 -333
14 -83 37 -163 138 -175 222 -3 21 3 24 57 35 133 26 122 26 129 -8 22 -108
144 -169 251 -124 39 17 55 42 55 88 0 63 -52 95 -224 139 -171 44 -246 113
-246 230 0 69 49 154 109 187 103 58 279 67 382 20z m-2391 -58 l0 -80 -130 0
-130 0 0 -335 0 -335 -95 0 -95 0 0 335 0 335 -135 0 -135 0 0 80 0 80 360 0
360 0 0 -80z m2892 -37 l3 -118 73 -3 72 -3 0 -64 0 -64 -72 -3 -73 -3 -3
-127 c-2 -97 1 -136 13 -164 15 -36 16 -36 64 -32 l49 5 17 -53 c9 -29 14 -57
11 -62 -9 -15 -90 -32 -152 -32 -81 0 -137 29 -163 84 -19 38 -21 61 -21 215
l0 173 -45 -4 -45 -3 0 67 0 68 45 0 45 0 0 103 0 103 73 16 c116 25 106 35
109 -99z m-2420 -113 c21 -6 40 -15 43 -21 4 -5 -6 -41 -20 -80 -27 -70 -27
-70 -59 -63 -67 16 -114 2 -144 -43 -14 -22 -18 -58 -22 -208 l-5 -180 -90 0
-90 0 -3 293 -2 292 95 0 95 0 0 -42 0 -43 24 35 c41 61 101 81 178 60z m553
-16 c135 -47 212 -214 171 -374 -30 -116 -91 -176 -209 -206 -124 -32 -260 -1
-338 76 -131 131 -105 387 48 477 92 54 219 64 328 27z m2530 0 c173 -60 239
-313 125 -479 -82 -120 -316 -151 -459 -61 -131 83 -167 279 -77 428 71 119
250 167 411 112z m657 16 c21 -6 40 -15 43 -21 4 -5 -6 -41 -20 -80 -27 -70
-27 -70 -59 -63 -67 16 -114 2 -144 -43 -14 -22 -18 -58 -22 -208 l-5 -180
-90 0 -90 0 -3 293 -2 292 95 0 95 0 0 -42 0 -43 24 36 c41 61 101 80 178 59z
m549 -15 c108 -38 168 -129 177 -267 l5 -78 -231 -2 -230 -3 12 -34 c17 -53
55 -75 137 -79 68 -4 70 -4 102 29 l32 34 89 -10 c49 -5 91 -15 93 -20 8 -26
-60 -95 -125 -127 -64 -32 -72 -33 -182 -33 -110 0 -118 1 -182 33 -111 54
-158 133 -158 262 0 161 82 273 227 310 52 13 178 5 234 -15z m-2231 -85 c0
-5 -2 -10 -4 -10 -3 0 -8 5 -11 10 -3 6 -1 10 4 10 6 0 11 -4 11 -10z m-616
-123 c18 -13 18 -14 -12 -19 -31 -4 -32 -3 -32 31 0 30 2 33 13 18 6 -9 21
-23 31 -30z m1092 -79 c-1 -46 -6 -73 -14 -76 -9 -3 -12 17 -12 72 0 59 3 76
14 76 11 0 14 -16 12 -72z m-778 -42 c28 -10 52 -22 52 -27 0 -12 -67 -11 -90
1 -24 13 -50 56 -29 48 8 -3 38 -13 67 -22z"/>
<path d="M2770 4153 c-66 -59 -66 -209 0 -275 24 -24 36 -28 83 -28 45 0 61 5
85 25 53 44 66 170 26 247 -32 62 -140 79 -194 31z m120 -84 c11 -20 13 -89 4
-113 -9 -23 -61 -21 -74 3 -11 22 -13 74 -4 108 10 36 56 37 74 2z"/>
<path d="M5301 4155 c-76 -64 -59 -263 25 -295 48 -19 110 -12 142 15 53 44
66 170 26 247 -31 61 -138 79 -193 33z m119 -84 c15 -30 12 -107 -5 -125 -17
-17 -43 -12 -62 12 -13 16 -17 89 -7 116 9 23 61 21 74 -3z"/>
<path d="M6515 4182 c-38 -24 -52 -40 -60 -75 l-7 -27 141 0 c131 0 141 1 141
19 0 25 -35 68 -70 86 -40 21 -109 19 -145 -3z"/>
<path d="M7461 4635 c-117 -26 -215 -103 -260 -206 -43 -97 -36 -177 17 -198
36 -14 174 -41 209 -41 40 0 69 24 84 68 6 20 16 43 22 50 12 15 57 16 57 0 0
-15 -97 -109 -192 -185 -86 -70 -187 -185 -219 -251 -18 -36 -21 -56 -17 -114
5 -59 10 -74 32 -97 l26 -26 308 -3 c169 -2 322 0 341 3 18 4 44 17 57 30 22
22 24 32 24 125 0 56 -5 110 -10 120 -17 32 -51 44 -139 50 l-84 5 50 32 c65
42 140 123 164 177 29 68 34 125 15 209 -30 134 -102 209 -237 247 -84 23
-156 24 -248 5z m233 -92 c80 -22 138 -77 160 -152 42 -142 1 -228 -156 -334
-46 -31 -114 -85 -153 -121 l-70 -65 193 -1 192 0 0 -75 0 -75 -305 0 -305 0
0 53 c0 44 6 62 31 98 45 63 133 152 214 217 176 139 202 184 161 283 -17 41
-125 53 -169 19 -14 -11 -33 -40 -43 -65 -11 -25 -25 -45 -33 -45 -41 0 -144
26 -148 37 -9 22 25 97 63 142 78 91 225 124 368 84z"/>
<path d="M2828 3529 c-30 -11 -93 -103 -132 -191 -51 -114 -70 -212 -70 -353
0 -188 37 -321 126 -452 56 -82 85 -96 189 -91 69 3 82 6 105 29 37 37 34 80
-10 153 -75 125 -102 241 -93 406 6 122 33 216 96 334 43 82 44 110 4 148 -21
20 -36 23 -106 25 -45 1 -94 -2 -109 -8z m137 -116 c-39 -58 -83 -182 -101
-285 -35 -200 8 -429 108 -570 l19 -28 -65 0 -65 0 -31 45 c-74 108 -108 214
-117 365 -9 165 32 328 117 460 l32 50 64 0 65 0 -26 -37z"/>
<path d="M4666 3531 c-60 -7 -73 -12 -98 -39 l-28 -32 -132 0 c-73 0 -140 -4
-147 -9 -10 -7 -24 -3 -45 12 -31 22 -35 22 -461 22 -488 0 -474 2 -495 -76
-8 -29 -11 -171 -8 -448 3 -368 5 -409 21 -434 9 -15 30 -30 45 -34 15 -5 218
-8 452 -8 336 0 430 3 448 13 21 12 27 11 45 -6 38 -34 59 -39 152 -40 75 0
103 5 171 30 l81 29 39 -23 c35 -21 54 -23 185 -27 89 -2 166 1 195 8 33 8
161 12 385 11 359 -2 394 3 418 48 14 26 14 207 1 232 -17 32 -51 44 -139 50
l-84 5 50 32 c104 68 176 168 189 266 9 61 -20 183 -55 239 -72 114 -261 172
-430 134 -76 -17 -119 -35 -160 -67 -23 -18 -24 -18 -51 11 l-28 30 -140 0
c-129 0 -141 2 -147 19 -16 52 -85 68 -229 52z m160 -118 l9 -38 158 -3 157
-3 0 -49 0 -50 -70 0 c-63 0 -70 -2 -70 -20 0 -18 7 -20 60 -20 l60 0 0 -39
c0 -39 -1 -40 -37 -43 l-38 -4 52 -24 51 -23 -25 -39 c-14 -21 -29 -38 -33
-38 -4 0 -26 14 -48 30 l-42 30 0 -25 c0 -24 -3 -25 -60 -25 -53 0 -60 2 -60
20 0 24 -13 26 -30 5 -22 -26 -50 -28 -74 -6 -20 19 -24 20 -36 6 -11 -13 -9
-15 13 -15 19 0 25 -4 21 -15 -5 -13 15 -15 145 -15 l151 0 0 -130 0 -130 -40
0 c-45 0 -47 -4 -22 -43 20 -29 32 -26 32 8 0 22 0 22 54 6 54 -16 54 -16 49
-51 -9 -59 -30 -100 -58 -110 -15 -6 -92 -10 -171 -10 -172 0 -203 10 -204 68
0 12 -2 22 -4 22 -2 0 -24 -11 -49 -25 -57 -32 -165 -75 -188 -75 -10 0 -30
21 -48 52 l-30 53 -10 -28 c-6 -16 -11 -32 -11 -36 0 -4 -6 -16 -14 -26 -12
-17 -16 -16 -69 26 -38 30 -54 49 -50 59 3 8 15 47 26 85 17 60 21 109 25 358
l4 287 174 0 c101 0 174 4 174 9 0 5 -4 21 -10 35 -9 24 -8 25 43 29 140 9
132 11 143 -30z m818 -20 c80 -22 138 -77 160 -152 23 -78 20 -129 -10 -189
-27 -54 -35 -61 -219 -201 -49 -38 -103 -83 -119 -100 l-30 -31 192 0 192 0 0
-75 0 -75 -305 0 -305 0 0 53 c0 44 6 62 31 98 45 63 133 152 214 217 173 137
205 192 163 278 -19 40 -94 57 -152 34 -28 -10 -64 -60 -72 -101 l-6 -26 -81
16 c-44 9 -82 22 -85 30 -7 22 30 103 66 143 80 89 225 121 366 81z m-1476
-65 l3 -68 -336 0 -335 0 0 -40 0 -40 303 -2 302 -3 3 -187 2 -188 -305 0
-305 0 0 -45 0 -45 338 -2 337 -3 0 -65 0 -65 -415 0 -415 0 -3 400 c-1 220 0
406 3 413 3 10 91 12 412 10 l408 -3 3 -67z m42 -320 c0 -94 -2 -169 -5 -166
-8 8 -11 338 -2 338 4 0 7 -77 7 -172z m1330 152 c0 -18 -81 -99 -166 -165
-45 -35 -109 -95 -143 -132 l-61 -68 0 78 c0 72 3 82 36 134 29 46 39 54 57
49 52 -15 135 -18 156 -7 12 7 33 37 46 67 20 45 28 54 49 54 15 0 26 -5 26
-10z"/>
<path d="M4437 3264 c-9 -10 -9 -164 1 -164 4 0 25 11 47 25 l40 24 -32 1
c-32 0 -33 2 -33 40 l0 40 56 0 c47 0 55 3 52 18 -3 13 -15 18 -64 20 -33 2
-63 0 -67 -4z"/>
<path d="M4690 3250 c0 -17 7 -20 45 -20 l45 0 0 -39 c0 -33 -4 -40 -22 -43
-22 -3 -22 -3 3 -20 24 -15 28 -15 60 0 l34 17 -27 3 c-25 3 -28 7 -28 43 l0
39 45 0 c38 0 45 3 45 20 0 19 -7 20 -100 20 -93 0 -100 -1 -100 -20z"/>
<path d="M4690 3139 c0 -5 5 -7 10 -4 6 3 10 8 10 11 0 2 -4 4 -10 4 -5 0 -10
-5 -10 -11z"/>
<path d="M4521 3047 l-45 -31 -14 22 c-8 12 -18 22 -22 22 -4 0 -10 -75 -13
-167 -3 -93 -10 -183 -16 -202 -6 -19 -9 -36 -7 -38 1 -2 38 6 81 17 85 22
165 56 165 71 0 5 -40 9 -90 9 l-90 0 0 130 0 130 94 0 c53 0 98 4 101 10 4 6
-13 10 -44 10 -45 0 -50 2 -53 24 l-3 24 -44 -31z"/>
<path d="M4690 3060 c0 -14 7 -20 22 -20 20 0 21 1 3 20 -10 11 -20 20 -22 20
-1 0 -3 -9 -3 -20z"/>
<path d="M4590 2925 c0 -12 13 -15 60 -15 47 0 60 3 60 15 0 12 -13 15 -60 15
-47 0 -60 -3 -60 -15z"/>
<path d="M4840 2925 c0 -12 13 -15 61 -15 81 0 77 24 -4 28 -46 2 -57 0 -57
-13z"/>
<path d="M4590 2830 c0 -6 27 -10 60 -10 33 0 60 4 60 10 0 6 -27 10 -60 10
-33 0 -60 -4 -60 -10z"/>
<path d="M4830 2830 c0 -6 28 -10 65 -10 37 0 65 4 65 10 0 6 -28 10 -65 10
-37 0 -65 -4 -65 -10z"/>
<path d="M4806 2734 c-4 -9 -4 -19 -1 -23 8 -7 38 12 43 27 6 19 -35 14 -42
-4z"/>
<path d="M4927 2732 c-21 -23 -21 -32 -2 -32 8 0 15 7 15 15 0 7 8 19 18 24
14 9 15 10 1 11 -9 0 -23 -8 -32 -18z"/>
<path d="M5015 2650 c-16 -7 -17 -9 -3 -9 9 -1 20 4 23 9 7 11 7 11 -20 0z"/>
<path d="M4873 2643 c20 -2 54 -2 75 0 20 2 3 4 -38 4 -41 0 -58 -2 -37 -4z"/>
<path d="M3500 2985 l0 -55 225 0 225 0 0 55 0 55 -225 0 -225 0 0 -55z"/>
<path d="M6094 3530 c-30 -12 -54 -49 -54 -83 0 -15 18 -60 39 -100 61 -112
82 -186 88 -317 9 -177 -20 -297 -99 -418 -35 -54 -37 -101 -4 -139 23 -26 30
-28 113 -31 57 -2 96 2 112 10 34 18 111 135 143 216 98 251 69 553 -74 780
-29 44 -52 69 -74 78 -37 15 -156 18 -190 4z m191 -132 c45 -67 90 -184 106
-273 7 -41 10 -115 7 -184 -7 -139 -38 -247 -102 -343 l-41 -63 -70 -3 c-66
-3 -68 -2 -53 15 25 28 86 161 103 228 22 84 30 245 16 335 -15 100 -54 215
-96 284 l-34 56 64 0 64 0 36 -52z"/>
<path d="M7104 3361 c-8 -9 -4 -390 5 -395 5 -3 11 3 14 13 3 14 16 20 48 23
25 3 47 0 51 -6 5 -7 11 -7 20 2 10 10 10 15 -2 23 -13 9 -13 10 0 6 8 -2 25
-1 37 4 24 9 33 -5 33 -49 0 -18 3 -23 10 -16 7 7 9 82 8 203 l-3 193 -108 2
c-60 0 -111 -1 -113 -3z"/>
<path d="M6980 2943 c1 -5 17 -26 36 -48 l36 -40 -26 42 -26 42 45 -4 c25 -2
45 1 45 6 0 5 -25 9 -55 9 -30 0 -55 -3 -55 -7z"/>
<path d="M7347 2939 c8 -8 16 -8 30 0 16 9 14 10 -11 11 -22 0 -27 -3 -19 -11z"/>
<path d="M7427 2929 c-4 -16 -3 -18 9 -8 16 13 19 29 5 29 -5 0 -11 -9 -14
-21z"/>
<path d="M7376 2853 c-6 -14 -5 -15 5 -6 7 7 10 15 7 18 -3 3 -9 -2 -12 -12z"/>
<path d="M7123 2635 c-79 -22 -130 -51 -184 -105 -86 -86 -128 -207 -116 -335
l6 -65 -82 0 c-228 -1 -415 -60 -524 -165 -46 -44 -53 -56 -53 -91 -1 -54 -19
-99 -70 -174 -45 -65 -45 -65 -44 -150 0 -71 7 -103 38 -195 l38 -110 -6 -170
c-3 -93 -9 -215 -12 -271 -8 -123 1 -155 62 -223 97 -108 215 -107 575 4 57
18 395 241 468 309 69 65 114 136 136 213 11 39 39 94 76 149 116 172 118 287
5 431 -54 69 -96 141 -96 165 0 7 20 21 45 31 146 61 244 222 232 382 -7 88
-18 127 -59 195 -85 141 -279 219 -435 175z m239 -197 c2 -19 9 -23 43 -24 36
0 40 -3 43 -28 6 -53 -5 -76 -39 -76 -26 0 -29 3 -24 20 5 14 2 20 -9 20 -10
0 -16 -9 -16 -25 0 -22 4 -25 35 -25 35 0 35 0 35 -45 0 -26 -9 -63 -20 -85
l-20 -40 34 -16 34 -17 -16 -33 -16 -34 -43 25 -44 24 -41 -26 -40 -27 -18 24
-18 23 -6 -21 c-9 -27 -18 -28 -41 -2 -22 24 -75 27 -75 5 0 -10 -10 -15 -30
-15 l-30 0 0 71 c0 39 -4 68 -9 65 -11 -7 -21 17 -21 47 0 12 11 45 25 72 30
61 31 75 5 75 -16 0 -20 7 -20 30 l0 30 80 0 80 0 0 -30 c0 -25 -4 -30 -24
-30 -23 0 -36 -16 -36 -46 0 -8 10 -14 25 -14 25 0 25 0 26 -97 1 -141 17 -78
18 75 l1 122 50 0 c47 0 50 2 50 25 0 22 4 25 34 25 28 0 35 -4 38 -22z m-502
-358 c0 -5 -12 -10 -26 -10 -25 0 -168 -21 -264 -39 l-45 -9 40 -1 c22 0 92 8
155 19 146 25 142 26 169 -10 l22 -30 -54 6 c-35 4 -84 0 -143 -12 -96 -19
-183 -22 -279 -10 -53 7 -62 6 -75 -10 -14 -17 -14 -18 2 -5 14 10 30 11 81 2
89 -15 203 -14 261 4 55 17 173 20 208 5 13 -5 39 -23 58 -39 l35 -30 -40 14
c-22 8 -69 14 -105 13 l-65 -1 75 -8 c84 -10 168 -46 200 -86 11 -14 20 -21
20 -16 0 6 -15 25 -32 43 l-33 32 35 -17 c19 -10 45 -27 58 -38 15 -14 21 -16
17 -7 -4 13 8 15 80 15 47 0 85 -4 85 -9 0 -5 12 -36 27 -69 21 -46 24 -62 14
-65 -7 -2 5 -12 27 -22 71 -32 118 -131 109 -230 -5 -63 -32 -123 -71 -159
-14 -13 -23 -27 -21 -31 3 -4 -2 -13 -10 -20 -8 -7 -26 -49 -40 -94 -47 -155
-106 -217 -376 -399 -139 -93 -182 -117 -210 -117 -19 0 -62 -13 -95 -29 -147
-69 -331 -80 -420 -25 -29 18 -55 44 -68 69 -23 45 -24 106 -5 355 14 190 6
272 -37 375 -7 18 -6 18 30 -3 52 -30 58 -20 8 12 -41 25 -50 48 -54 125 -1
32 -2 30 -8 -14 l-7 -50 -1 65 c-2 67 10 101 74 207 15 26 28 65 31 98 5 48
12 63 50 105 60 67 129 100 212 101 43 0 59 3 46 8 -15 6 0 12 55 21 148 25
300 35 300 20z"/>
<path d="M7260 2325 c0 -16 6 -25 15 -25 9 0 15 9 15 25 0 16 -6 25 -15 25 -9
0 -15 -9 -15 -25z"/>
<path d="M7100 2190 c0 -33 4 -60 10 -60 6 0 10 27 10 60 0 33 -4 60 -10 60
-6 0 -10 -27 -10 -60z"/>
<path d="M7310 2223 c0 -5 7 -16 15 -26 13 -18 14 -18 24 2 15 28 14 31 -14
31 -14 0 -25 -3 -25 -7z"/>
<path d="M7255 2146 c-3 -9 -7 -23 -10 -31 -4 -13 -1 -13 15 -5 21 11 26 35
10 45 -6 3 -12 -1 -15 -9z"/>
<path d="M6401 1906 c-18 -6 -42 -22 -52 -35 -32 -39 -21 -45 14 -8 47 50 113
58 200 22 10 -4 17 -3 17 3 0 14 -65 32 -110 31 -19 0 -50 -6 -69 -13z"/>
<path d="M6776 1898 c-9 -12 -16 -29 -15 -38 0 -13 1 -13 6 0 3 8 12 23 21 33
8 9 13 20 10 23 -3 3 -13 -5 -22 -18z"/>
<path d="M6546 1845 c4 -11 10 -40 14 -65 l7 -45 2 46 c0 28 -5 52 -15 65 -15
19 -16 19 -8 -1z"/>
<path d="M6858 1794 c-50 -15 -111 -67 -120 -102 -7 -24 10 -61 33 -75 12 -7
32 -2 79 21 67 34 134 42 186 22 15 -6 36 -8 46 -4 52 16 -21 122 -99 143 -48
14 -67 13 -125 -5z m36 -56 c9 -34 8 -38 -13 -38 -10 0 -30 -9 -44 -20 -32
-25 -57 -26 -57 -2 0 21 21 42 65 65 39 21 42 21 49 -5z m156 -18 c8 -5 11
-12 8 -16 -10 -9 -38 3 -38 16 0 12 10 13 30 0z"/>
<path d="M6382 1750 c-28 -12 -50 -56 -35 -71 6 -6 46 -16 89 -23 112 -19 114
-20 114 -72 0 -41 -5 -48 -86 -130 -62 -62 -76 -81 -50 -65 32 20 37 21 42 7
5 -12 10 -14 19 -6 10 8 20 2 42 -26 64 -84 75 -89 97 -45 17 31 11 47 -10 30
-19 -16 -41 -5 -64 33 -27 45 -25 69 10 103 25 24 30 37 30 76 0 46 3 52 45
88 20 16 6 35 -20 29 -10 -1 -33 11 -52 29 -48 46 -119 63 -171 43z m63 -40
c4 -6 -7 -10 -27 -10 -25 0 -29 3 -18 10 19 13 37 13 45 0z"/>
<path d="M7144 1699 c15 -9 16 -13 5 -20 -11 -7 -11 -9 2 -9 9 0 22 6 28 14 9
11 7 15 -11 20 -35 9 -45 7 -24 -5z"/>
<path d="M6280 1690 c19 -13 30 -13 30 0 0 6 -10 10 -22 10 -19 0 -20 -2 -8
-10z"/>
<path d="M6163 1668 c-34 -39 -53 -72 -53 -92 0 -13 8 -4 23 24 14 30 36 53
62 67 37 21 38 23 14 23 -14 0 -35 -10 -46 -22z"/>
<path d="M7312 1681 c26 -4 58 -16 71 -26 12 -11 10 -8 -5 8 -23 21 -37 27
-71 26 l-42 -2 47 -6z"/>
<path d="M6940 1631 c0 -12 13 -35 29 -53 28 -31 33 -33 99 -33 63 0 75 3 117
33 58 41 97 42 135 4 35 -36 47 -91 32 -149 -14 -52 -15 -73 -3 -73 15 0 41
78 41 122 0 55 -35 125 -74 149 -49 30 -103 25 -166 -16 -68 -44 -116 -47
-151 -9 -13 14 -32 30 -41 35 -15 8 -18 6 -18 -10z"/>
<path d="M6166 1611 c-13 -14 -16 -32 -13 -67 l3 -49 2 47 c2 37 7 51 28 67
17 13 21 21 12 21 -8 0 -23 -9 -32 -19z"/>
<path d="M6207 1582 c-18 -19 -23 -42 -9 -42 4 0 22 4 41 10 39 11 66 0 76
-30 5 -15 15 -20 44 -20 40 0 61 14 61 42 0 20 -20 24 -38 6 -9 -9 -17 -7 -34
9 -47 44 -114 55 -141 25z"/>
<path d="M7224 1551 c-5 -22 -22 -38 -82 -74 -226 -133 -432 -207 -577 -207
-84 0 -175 33 -229 83 -44 42 -46 46 -46 100 0 51 -15 86 -24 55 -42 -142 -46
-169 -46 -281 0 -140 21 -244 56 -287 14 -16 51 -39 82 -52 52 -20 73 -22 237
-22 162 0 186 2 244 23 141 50 261 161 336 311 26 52 56 107 66 122 11 14 19
39 19 55 0 40 13 56 39 48 43 -13 42 7 -3 55 -30 32 -46 58 -46 75 0 34 -19
32 -26 -4z m12 -112 c-9 -45 -42 -87 -88 -110 -22 -11 -42 -19 -44 -17 -5 6
-9 77 -4 81 55 44 107 77 123 77 16 0 19 -5 13 -31z m-176 -98 c-15 -54 -30
-70 -96 -101 -36 -17 -68 -29 -71 -27 -2 3 -5 24 -6 47 l-2 42 85 34 c47 18
88 33 92 34 4 0 3 -13 -2 -29z m-755 -86 c-7 -56 -25 -67 -25 -15 0 34 18 85
26 77 4 -3 3 -31 -1 -62z m873 28 c-2 -5 -12 -26 -22 -48 -19 -43 -44 -75 -58
-75 -12 0 -9 63 5 80 23 30 87 66 75 43z m-804 -16 c15 -11 17 -21 11 -55 -7
-43 -11 -48 -31 -34 -22 15 -27 102 -5 102 4 0 15 -6 25 -13z m481 -33 c3 -25
5 -47 3 -48 -7 -6 -126 -36 -141 -36 -13 0 -17 9 -17 44 l0 44 63 20 c34 11
67 20 73 21 7 1 15 -20 19 -45z m-337 -9 c6 -3 12 -20 12 -40 l0 -36 -47 7
c-27 3 -51 8 -55 11 -10 5 -10 57 -1 66 6 7 59 1 91 -8z m147 -31 l0 -39 -52
-3 c-50 -3 -53 -2 -53 20 0 34 14 49 51 58 49 11 54 8 54 -36z m395 -15 c0
-17 4 -39 10 -49 8 -15 -1 -28 -58 -80 l-67 -62 -14 34 c-7 18 -16 51 -18 73
-5 38 -3 41 28 52 19 7 50 24 69 37 45 32 50 32 50 -5z m-180 -93 c0 -18 7
-50 16 -71 8 -21 12 -41 7 -45 -15 -14 -123 -50 -148 -50 -23 0 -25 4 -27 50
-1 28 -2 57 -2 66 -1 9 6 20 14 25 27 14 125 57 133 58 4 1 7 -14 7 -33z
m-591 -56 c5 -16 6 -30 1 -30 -4 0 -13 14 -19 30 -5 17 -6 30 -1 30 4 0 13
-13 19 -30z m65 -37 c9 -25 14 -48 12 -50 -2 -2 -16 1 -32 7 -21 8 -25 13 -15
19 10 6 12 19 7 46 -10 51 8 37 28 -22z m346 -13 l0 -70 -54 0 -53 0 -7 38
c-12 73 -9 82 27 83 17 0 41 4 52 9 34 14 35 12 35 -60z m-280 40 c10 0 34
-89 26 -97 -10 -10 -42 13 -38 26 1 7 -5 25 -13 41 -19 37 -19 44 1 36 9 -3
19 -6 24 -6z m100 0 c11 -6 24 -27 30 -48 16 -58 14 -64 -22 -60 -28 3 -33 8
-49 55 -16 48 -16 52 -1 56 9 3 18 5 20 6 2 0 12 -4 22 -9z"/>
<path d="M6762 1488 c-19 -19 -15 -26 19 -33 38 -9 47 -29 26 -65 -14 -23 -15
-30 -3 -39 17 -14 33 4 42 47 9 45 -2 77 -31 90 -32 15 -38 15 -53 0z"/>
<path d="M6150 1467 c0 -15 27 -43 34 -36 3 2 -4 15 -15 28 -13 16 -19 18 -19
8z"/>
<path d="M6860 1460 c0 -12 1 -12 69 -15 38 -1 48 1 36 7 -9 6 -27 7 -41 4
-13 -4 -33 -2 -44 4 -14 7 -20 7 -20 0z"/>
<path d="M6683 1414 c-7 -3 -13 -12 -13 -20 0 -10 12 -14 39 -14 22 0 47 -3
56 -6 13 -5 16 -2 13 17 -2 20 -9 24 -43 26 -22 1 -46 0 -52 -3z"/>
<path d="M7412 1381 c-6 -16 -20 -39 -31 -50 -12 -12 -17 -21 -13 -21 15 0 50
45 57 73 9 36 0 35 -13 -2z"/>
<path d="M7076 905 c-110 -73 -196 -116 -311 -156 -44 -15 -73 -28 -64 -28 30
-1 168 48 252 90 81 41 213 124 223 141 15 25 -11 12 -100 -47z"/>
<path d="M7005 916 c-138 -88 -201 -121 -265 -139 -64 -17 -65 -18 -15 -12 63
7 144 45 265 124 106 70 107 71 94 71 -5 0 -41 -20 -79 -44z"/>
<path d="M6290 843 c0 -17 32 -53 58 -67 15 -8 50 -17 77 -20 l50 -6 -62 20
c-36 12 -74 33 -92 51 -17 17 -31 27 -31 22z"/>
<path d="M6212 815 c0 -16 2 -22 5 -12 2 9 2 23 0 30 -3 6 -5 -1 -5 -18z"/>
<path d="M6575 820 l-90 -7 97 0 c54 0 95 3 92 8 -3 5 -6 8 -7 7 -1 -1 -42 -5
-92 -8z"/>
<path d="M6230 763 c0 -13 28 -37 68 -57 26 -13 60 -17 149 -17 64 1 118 3
121 6 3 3 -40 5 -95 5 -111 0 -183 17 -219 51 -13 12 -24 18 -24 12z"/>
<path d="M6648 713 c6 -2 18 -2 25 0 6 3 1 5 -13 5 -14 0 -19 -2 -12 -5z"/>
<path d="M6593 703 c9 -2 23 -2 30 0 6 3 -1 5 -18 5 -16 0 -22 -2 -12 -5z"/>
<path d="M5940 2348 c-19 -5 -262 -70 -540 -144 -278 -74 -533 -148 -567 -164
-37 -17 -81 -48 -112 -81 -28 -29 -51 -46 -51 -38 -1 19 -39 64 -69 79 -13 7
-60 14 -105 17 -44 3 -97 12 -116 21 -48 21 -165 20 -213 -3 -26 -12 -57 -17
-100 -15 -262 9 -405 10 -555 3 l-172 -9 -32 -31 -31 -31 -31 33 c-26 27 -42
34 -90 40 -79 10 -169 1 -208 -22 -17 -10 -41 -37 -52 -59 l-21 -40 -34 34
c-43 43 -98 68 -182 81 -79 13 -450 13 -501 0 -20 -5 -49 -23 -65 -42 l-29
-33 -24 22 c-13 13 -41 26 -64 30 -22 3 -52 15 -67 26 -31 24 -136 35 -189 21
-21 -6 -51 -5 -77 1 -64 14 -235 -6 -269 -33 -22 -17 -35 -19 -92 -14 -45 4
-77 13 -95 27 -25 18 -43 21 -127 21 -86 0 -102 -3 -129 -22 -18 -14 -45 -23
-65 -23 -67 0 -132 -20 -161 -50 -23 -24 -28 -39 -32 -97 -2 -37 -11 -96 -20
-130 -17 -67 -13 -129 13 -177 12 -24 12 -36 3 -64 -20 -60 13 -172 65 -221
l25 -24 -27 -28 c-37 -40 -40 -53 -41 -229 -1 -150 -4 -171 -34 -254 -27 -72
12 -145 113 -211 l35 -23 290 7 c160 4 295 3 301 -1 6 -4 32 -11 57 -14 35 -5
55 -2 84 13 27 14 46 18 66 12 46 -12 279 -21 311 -12 20 6 44 4 73 -5 40 -13
54 -13 152 7 123 24 260 68 326 104 40 23 45 24 50 8 8 -26 111 -111 147 -122
44 -12 95 3 150 45 l45 35 19 -25 c37 -48 156 -68 236 -40 31 11 40 11 57 0
54 -38 184 -28 235 17 42 36 50 36 92 0 55 -49 171 -54 243 -10 27 16 39 18
68 10 23 -7 53 -7 86 0 43 8 57 6 91 -11 36 -17 73 -22 166 -20 13 0 41 9 62
20 37 19 40 19 71 3 41 -21 108 -21 141 1 15 9 42 41 62 71 47 70 55 128 26
184 -19 37 -20 42 -6 88 19 60 14 172 -10 207 -9 14 -16 45 -16 70 0 25 -4 56
-9 69 -9 24 -7 25 50 37 46 10 69 22 99 51 l39 38 11 -37 c6 -20 40 -147 76
-282 110 -411 145 -532 161 -564 78 -153 226 -246 394 -248 67 0 128 13 461
102 211 56 387 105 391 109 4 5 -15 11 -42 14 -141 17 -266 125 -307 264 -9
32 -21 53 -30 53 -7 0 -116 -27 -241 -60 -126 -33 -241 -60 -256 -60 -42 0
-92 24 -114 56 -16 23 -73 200 -73 227 0 7 80 30 85 25 2 -2 15 -45 29 -96 28
-105 38 -122 72 -122 32 0 476 119 492 132 16 13 13 95 -4 102 -7 3 -29 0 -49
-5 -41 -12 -49 -6 -86 66 -27 51 -21 47 -76 56 -48 7 -48 7 -101 -44 l-52 -52
-43 23 c-23 12 -52 30 -64 40 -22 17 -22 18 -8 72 20 75 19 90 -12 125 -24 27
-33 30 -101 35 l-75 5 -20 69 c-12 40 -17 71 -12 73 6 2 35 19 65 37 52 31 55
35 62 82 7 49 7 49 -43 100 l-51 51 25 49 c46 89 42 87 121 64 l68 -19 39 31
c39 31 39 32 39 104 l0 73 58 17 c31 8 64 18 73 20 12 3 27 -13 53 -60 34 -61
38 -64 81 -71 42 -6 49 -4 83 26 46 41 62 61 98 128 29 54 96 121 149 149 53
27 127 42 243 49 61 3 112 9 112 13 0 14 -97 70 -154 90 -61 22 -184 26 -246
8z m-1620 -438 c0 -19 7 -20 115 -20 l115 0 0 -40 0 -39 -112 -3 c-78 -2 -113
-7 -116 -15 -3 -10 20 -13 92 -13 l96 0 0 -40 0 -40 -235 0 -235 0 0 40 0 40
90 0 c73 0 90 3 90 15 0 12 -20 15 -116 15 l-115 0 3 38 3 37 111 3 c102 2
112 4 117 22 4 16 14 20 51 20 39 0 46 -3 46 -20z m-3198 -12 c3 -22 8 -23
106 -26 l102 -3 0 -74 0 -75 -50 0 c-49 0 -50 1 -50 30 l0 30 -107 -1 c-93 -1
-102 -2 -65 -11 40 -9 55 -29 32 -43 -29 -18 3 -25 128 -27 l137 -3 3 -42 3
-43 -44 0 c-43 0 -45 -1 -79 -59 l-35 -59 61 -22 c33 -12 65 -26 69 -30 7 -6
-27 -91 -36 -90 -1 0 -44 17 -95 38 l-93 38 -97 -32 c-53 -18 -118 -36 -144
-39 -47 -7 -47 -7 -62 30 -9 21 -16 41 -16 45 0 4 33 13 73 20 116 21 120 24
52 49 -80 30 -79 29 -51 66 15 19 26 36 26 39 0 3 -27 6 -61 6 l-60 0 3 43 3
42 87 3 88 3 20 39 20 40 -45 0 c-41 0 -45 -2 -45 -25 0 -23 -3 -25 -50 -25
l-50 0 0 70 0 70 105 0 105 0 -6 25 c-6 25 -5 25 54 25 55 0 61 -2 64 -22z
m498 -108 l0 -130 -45 0 c-41 0 -45 2 -45 25 0 14 -2 25 -5 25 -2 0 -29 -11
-59 -24 l-55 -24 -15 43 -15 44 75 28 c55 20 74 32 74 46 0 16 -4 15 -36 -9
l-36 -28 -26 34 c-34 43 -33 48 1 73 l27 21 35 -34 35 -34 0 37 0 37 45 0 45
0 0 -130z m220 105 c0 -24 3 -25 60 -25 l60 0 0 -40 0 -40 -60 0 c-47 0 -60
-3 -60 -15 0 -12 13 -15 56 -15 l55 0 -3 -37 -3 -38 -112 -3 c-94 -2 -111 -5
-106 -17 4 -12 28 -15 119 -15 l114 0 0 -40 c0 -38 -2 -40 -30 -40 -34 0 -36
-6 -15 -37 14 -19 13 -22 -15 -33 -41 -17 -38 -28 15 -41 l44 -11 -20 -39
c-11 -23 -27 -39 -37 -39 -10 0 -51 17 -92 37 -41 21 -78 39 -82 41 -5 2 -8
-9 -8 -25 0 -27 -3 -29 -82 -47 -45 -10 -87 -20 -93 -22 -7 -3 -22 9 -33 27
-18 28 -18 34 -6 47 22 21 11 24 -29 7 -20 -8 -41 -15 -46 -15 -11 0 -41 51
-41 68 0 5 26 19 58 30 31 12 66 28 77 36 18 14 14 15 -57 16 l-78 0 0 40 0
40 120 0 c73 0 120 4 120 10 0 6 8 10 17 10 13 0 14 3 5 12 -7 7 -12 27 -12
45 l0 33 55 0 c42 0 55 3 55 15 0 12 -13 15 -60 15 l-60 0 0 40 0 40 60 0 c57
0 60 1 60 25 0 23 4 25 45 25 41 0 45 -2 45 -25z m470 -45 l0 -50 -60 0 -60 0
0 50 0 50 60 0 60 0 0 -50z m407 20 c91 -51 111 -182 40 -259 -33 -35 -77 -50
-171 -57 l-86 -7 0 -88 0 -89 -60 0 -60 0 0 266 0 266 148 -4 c133 -3 151 -6
189 -28z m467 -37 c14 -38 59 -157 99 -265 l74 -198 -66 0 -67 0 -18 55 -17
56 -101 -3 -101 -3 -17 -50 -17 -50 -67 -3 c-38 -2 -66 1 -64 6 1 5 46 124 98
266 l94 256 72 0 72 0 26 -67z m766 22 l0 -45 -50 0 c-43 0 -50 -3 -50 -20 0
-17 7 -20 45 -20 l45 0 0 -120 c0 -107 -2 -122 -20 -140 -11 -11 -31 -20 -45
-20 -18 0 -25 -5 -25 -20 0 -16 -7 -20 -35 -20 l-35 0 0 115 c0 70 -4 115 -10
115 -6 0 -10 -38 -10 -95 l0 -95 -30 0 -30 0 0 140 0 140 34 0 c25 0 35 5 39
20 5 18 0 20 -44 20 l-49 0 0 -185 0 -185 141 0 140 0 -3 -37 -3 -38 -177 -3
-178 -2 0 270 0 270 175 0 175 0 0 -45z m-362 -2 c-3 -34 -6 -38 -34 -41 -26
-3 -32 -9 -41 -42 l-10 -40 38 0 39 0 0 -175 0 -175 -35 0 c-24 0 -35 5 -35
15 0 8 -4 15 -10 15 -5 0 -10 -9 -10 -20 0 -17 -7 -20 -40 -20 l-40 0 0 95 c0
77 -3 93 -14 89 -24 -9 -26 94 -3 133 10 18 25 53 32 78 14 45 14 45 -10 45
-22 0 -25 4 -25 40 l0 40 101 0 100 0 -3 -37z m-1278 -293 l0 -190 -60 0 -60
0 0 190 0 190 60 0 60 0 0 -190z m2240 50 l0 -70 -45 0 c-43 0 -45 1 -45 30
l0 30 -185 0 -185 0 0 -30 c0 -29 -2 -30 -45 -30 l-45 0 0 70 0 70 275 0 275
0 0 -70z m-140 -100 c0 -54 4 -72 15 -76 21 -8 45 14 45 41 0 50 7 55 54 39
l43 -15 -8 -42 c-16 -85 -32 -97 -139 -97 -90 0 -110 17 -110 90 l0 50 -43 0
c-41 0 -43 -1 -57 -42 -16 -46 -77 -92 -136 -104 -29 -5 -35 -2 -58 32 l-25
37 51 18 c63 21 78 40 78 96 l0 43 145 0 145 0 0 -70z m-1711 -104 c-7 -25 -6
-46 5 -75 l14 -41 -37 0 c-20 -1 -53 -7 -74 -14 l-38 -14 24 24 c25 24 37 63
37 115 0 28 3 29 67 38 8 1 9 -8 2 -33z m405 -78 c20 -40 21 -38 -18 -38 l-34
0 16 35 c9 19 17 35 18 35 2 0 10 -14 18 -32z m-1034 -2 c0 -7 10 -24 23 -38
l23 -25 -37 -20 -36 -20 -22 23 -22 23 28 39 c27 38 43 45 43 18z m-920 -171
l5 -30 98 -3 97 -3 0 -44 0 -45 -220 0 -220 0 0 -31 c0 -29 2 -31 28 -24 53
14 54 13 88 -90 19 -54 34 -105 34 -111 0 -12 -50 -34 -76 -34 -7 0 -15 8 -18
18 -2 9 -15 51 -28 92 l-22 75 -7 -95 c-6 -89 -26 -176 -49 -210 -8 -12 -16
-8 -49 24 -27 27 -37 43 -31 51 25 30 40 134 40 277 l0 148 109 0 110 0 -9 29
c-8 30 -8 30 38 34 72 6 76 4 82 -28z m1180 18 c3 -3 -4 -11 -14 -19 -18 -12
-7 -14 92 -14 l112 0 0 -44 c0 -50 -6 -57 -120 -120 -63 -35 -64 -36 -31 -36
33 0 34 0 16 -20 -18 -20 -17 -20 73 -20 l92 0 0 -39 c0 -34 -6 -45 -41 -74
-80 -69 -221 -129 -377 -162 -101 -21 -106 -20 -120 18 -7 18 -12 36 -12 39 0
3 43 13 95 23 92 16 117 27 95 40 -18 11 -10 22 29 37 37 15 40 14 59 -4 19
-20 20 -20 73 9 l54 28 -73 3 c-60 2 -80 -1 -109 -18 -36 -21 -155 -72 -158
-67 -26 40 -46 79 -44 81 2 2 29 11 59 21 52 17 150 62 150 69 0 1 -39 -8 -87
-21 -49 -12 -95 -23 -104 -23 -9 0 -22 16 -31 39 l-16 40 27 5 c14 3 54 11 89
17 62 12 63 12 47 35 -15 23 -14 24 22 43 21 11 33 20 26 21 -7 0 -41 -16 -77
-36 l-65 -35 -25 38 c-28 41 -27 43 24 63 42 17 147 77 154 89 5 8 106 3 116
-6z m1285 -13 c-6 -19 -2 -20 74 -20 l81 0 0 -40 c0 -29 -7 -48 -30 -74 -32
-36 -27 -46 24 -46 32 0 35 -6 23 -46 -11 -35 -11 -36 -55 -29 -25 4 -50 9
-58 12 -9 3 -11 -2 -7 -16 5 -18 13 -21 59 -21 l54 0 0 -40 0 -40 -55 0 c-48
0 -55 -2 -55 -20 0 -18 7 -20 60 -20 l60 0 0 -40 0 -40 -59 0 -60 0 -3 -32
c-3 -31 -6 -33 -45 -36 l-43 -3 0 35 0 36 -75 0 -75 0 0 30 0 29 -25 -24 c-15
-16 -36 -25 -55 -25 -28 0 -30 -2 -30 -40 l0 -40 -45 0 -45 0 2 273 3 272 98
3 97 3 0 -48 1 -48 52 57 c47 52 56 57 95 57 39 1 43 -1 37 -19z m358 9 c20
-5 37 -12 37 -14 0 -3 -18 -34 -40 -70 -45 -74 -46 -75 -25 -75 9 0 20 11 26
24 11 23 12 23 50 8 21 -8 39 -19 39 -24 0 -5 -22 -42 -50 -83 -27 -41 -50
-76 -50 -78 0 -1 16 -1 35 1 35 4 35 4 35 -36 l0 -41 -57 -6 c-115 -13 -114
-14 -128 25 -12 34 -10 37 28 80 l39 45 -36 3 c-31 3 -37 7 -45 38 -8 30 -6
40 14 69 13 19 33 60 46 90 25 59 26 60 82 44z m-2035 -264 c-4 -298 2 -284
-110 -285 -58 0 -68 3 -68 18 0 9 -3 27 -6 39 -5 19 -2 22 31 25 41 3 62 25
52 52 -5 12 -19 16 -57 16 l-50 0 0 -70 0 -70 -50 0 -50 0 0 70 0 70 -50 0
c-38 0 -50 -4 -50 -15 0 -21 -38 -127 -49 -138 -5 -5 -26 0 -51 13 -32 16 -40
25 -35 38 30 71 35 115 35 292 0 103 3 190 7 193 3 4 118 7 255 7 l249 0 -3
-255z m1222 211 l0 -45 -42 -3 -43 -3 -3 -62 -3 -63 56 0 55 0 0 -45 0 -45
-55 0 -55 0 0 -115 0 -115 -50 0 -50 0 0 115 0 115 -70 0 -70 0 0 -29 c0 -61
-46 -147 -103 -191 l-27 -21 -40 33 c-22 18 -40 35 -40 38 0 3 14 14 31 25 35
23 79 92 79 123 0 20 -5 22 -60 22 l-60 0 0 45 0 45 60 0 60 0 0 65 0 65 -45
0 -45 0 0 45 0 45 260 0 260 0 0 -44z m1190 -7 c0 -35 -6 -60 -21 -80 l-20
-29 42 0 41 0 -4 -57 c-3 -37 -15 -81 -35 -122 l-31 -63 43 -30 43 -30 -25
-36 c-13 -20 -25 -38 -27 -39 -1 -2 -24 12 -50 31 l-48 34 -62 -39 -61 -39
-25 31 -26 31 -14 -26 c-17 -32 -24 -32 -48 -2 l-19 24 -83 -14 c-45 -8 -84
-13 -85 -12 -1 2 -5 22 -8 44 l-5 42 91 11 c68 9 92 9 97 0 12 -19 50 111 56
191 2 41 7 90 9 108 3 28 1 32 -21 32 -21 0 -24 4 -24 38 0 21 3 42 7 45 3 4
75 7 160 7 l153 0 0 -51z m-3180 -189 c12 -49 24 -90 26 -90 2 0 15 38 30 85
14 47 32 85 39 85 11 0 76 -20 83 -25 2 -2 -60 -180 -83 -237 -6 -16 -1 -18
39 -18 l46 0 0 -45 0 -45 -226 0 -225 0 3 43 3 42 128 3 c126 3 128 3 137 28
15 39 12 43 -22 33 -17 -5 -33 -7 -36 -5 -2 3 -16 54 -32 114 l-27 110 41 9
c22 5 44 8 47 6 4 -1 17 -43 29 -93z"/>
<path d="M998 1586 c-16 -23 -16 -23 40 -41 l56 -17 28 33 c15 18 28 37 28 41
0 4 -30 8 -67 8 -59 -1 -70 -4 -85 -24z"/>
<path d="M1750 1561 c0 -5 6 -14 14 -20 11 -10 21 -9 45 4 17 8 31 18 31 20 0
3 -20 5 -45 5 -25 0 -45 -4 -45 -9z"/>
<path d="M1632 1522 c-14 -9 -22 -25 -22 -42 0 -28 0 -28 43 -17 23 5 44 11
46 13 2 2 -7 16 -21 32 -22 27 -26 28 -46 14z"/>
<path d="M2500 1725 l0 -75 59 0 c74 0 111 25 111 75 0 50 -37 75 -111 75
l-59 0 0 -75z"/>
<path d="M3055 1697 c-16 -51 -31 -98 -33 -104 -3 -10 14 -13 67 -13 39 0 71
2 71 4 0 2 -17 48 -38 104 l-37 100 -30 -91z"/>
<path d="M3850 1624 c0 -34 4 -53 10 -49 6 3 10 28 10 56 0 27 -4 49 -10 49
-5 0 -10 -25 -10 -56z"/>
<path d="M3490 1565 c0 -50 4 -85 10 -85 6 0 10 35 10 85 0 50 -4 85 -10 85
-6 0 -10 -35 -10 -85z"/>
<path d="M2243 1033 l27 -27 52 26 53 27 -80 0 -80 1 28 -27z"/>
<path d="M3321 1018 l1 -63 14 50 c17 64 17 75 -1 75 -12 0 -15 -13 -14 -62z"/>
<path d="M3587 1048 c19 -19 26 -20 48 -10 38 18 30 29 -22 31 l-48 1 22 -22z"/>
<path d="M3410 992 c-10 -45 -10 -58 4 -92 9 -22 16 -64 16 -93 0 -31 4 -47 9
-39 4 7 6 35 3 63 l-5 49 72 0 c64 0 71 2 71 20 0 16 7 20 38 21 29 0 32 2 17
8 -11 5 -31 4 -45 -1 -14 -5 -51 -15 -83 -23 l-57 -13 -15 28 c-22 42 -19 48
28 55 59 10 76 21 48 30 -13 4 -28 2 -34 -4 -8 -8 -17 -4 -33 16 l-21 27 -13
-52z"/>
<path d="M3321 852 c-1 -55 2 -73 12 -70 18 7 20 71 3 109 l-14 34 -1 -73z"/>
<path d="M3536 784 c-9 -23 -8 -24 19 -24 18 0 25 5 25 20 0 24 -35 28 -44 4z"/>
<path d="M1532 1038 c3 -32 5 -33 51 -36 l47 -3 0 35 0 36 -51 0 -50 0 3 -32z"/>
<path d="M1730 1034 l0 -35 53 3 c51 3 52 4 55 36 l3 32 -55 0 -56 0 0 -36z"/>
<path d="M1534 906 c-14 -36 0 -51 49 -54 l47 -3 0 35 c0 36 0 36 -45 36 -31
0 -47 -5 -51 -14z"/>
<path d="M1730 885 l0 -36 53 3 c50 3 52 4 52 33 0 29 -2 30 -52 33 l-53 3 0
-36z"/>
<path d="M2840 1005 l0 -65 65 0 65 0 0 65 0 65 -65 0 -65 0 0 -65z"/>
<path d="M4166 1036 c-4 -20 -1 -51 7 -74 17 -48 65 -132 76 -132 6 0 41 63
41 75 0 3 -18 5 -40 5 l-40 0 0 48 c0 31 7 55 20 72 27 35 25 40 -19 40 -36 0
-39 -2 -45 -34z"/>
<path d="M4128 768 c-9 -29 -14 -55 -12 -57 2 -2 19 7 38 20 35 24 36 30 4 72
-12 16 -15 13 -30 -35z"/>
<path d="M5490 1830 c0 -56 -2 -60 -31 -76 -17 -8 -50 -33 -74 -55 l-42 -39
-52 16 c-29 8 -55 14 -57 11 -2 -2 14 -23 37 -46 38 -39 40 -43 30 -73 -6 -17
-11 -55 -11 -84 0 -57 -15 -77 -79 -104 -44 -18 -29 -30 38 -30 50 0 59 -3 68
-22 6 -13 29 -44 52 -70 l42 -47 -15 -58 c-8 -31 -13 -59 -10 -62 2 -3 24 14
48 38 42 42 44 42 82 32 22 -6 62 -11 89 -11 50 0 50 -1 78 -51 15 -27 31 -48
36 -45 4 3 6 30 3 61 -4 51 -3 57 17 62 12 3 23 15 26 27 8 33 11 168 5 206
l-5 35 -50 -88 c-27 -48 -53 -87 -57 -87 -8 0 -218 120 -218 125 0 9 43 75 48
75 4 -1 18 -7 32 -15 47 -27 48 -19 19 87 -16 57 -25 106 -20 111 5 5 26 11
47 14 l39 5 24 -97 c14 -53 28 -98 32 -101 5 -2 13 3 18 13 26 46 27 46 60 29
l31 -17 0 43 c1 24 2 91 4 151 l3 107 -25 -16 c-20 -13 -32 -14 -67 -5 -24 6
-64 11 -88 11 -42 0 -45 2 -71 50 -15 28 -29 50 -32 50 -2 0 -4 -27 -4 -60z"/>
<path d="M5598 713 c7 -3 16 -2 19 1 4 3 -2 6 -13 5 -11 0 -14 -3 -6 -6z"/>
</g>
</svg>
